<svg width="284" height="190" viewBox="0 0 284 190" fill="none" xmlns="http://www.w3.org/2000/svg">
<rect x="1" y="1" width="79.0306" height="129.61" fill="black" stroke="white" stroke-width="2"/>
<path d="M29.1606 62V54.9H33.9306V56.11H30.5406V57.94H33.3606V59.06H30.5406V62H29.1606ZM36.325 54.9H37.725L40.335 62H38.915L38.255 60.23H35.775L35.125 62H33.705L36.325 54.9ZM38.005 59.26L37.025 56.33L36.005 59.26H38.005ZM45.2558 56.76C45.1958 56.6933 45.0691 56.6067 44.8758 56.5C44.6825 56.3867 44.4491 56.2867 44.1758 56.2C43.9091 56.1067 43.6325 56.06 43.3458 56.06C42.5925 56.06 42.2158 56.3267 42.2158 56.86C42.2158 57.0533 42.2758 57.2067 42.3958 57.32C42.5158 57.4333 42.6958 57.53 42.9358 57.61C43.1758 57.69 43.4758 57.7767 43.8358 57.87C44.3025 57.99 44.7058 58.13 45.0458 58.29C45.3925 58.45 45.6558 58.6633 45.8358 58.93C46.0225 59.19 46.1158 59.5367 46.1158 59.97C46.1158 60.4767 45.9925 60.8867 45.7458 61.2C45.5058 61.5067 45.1858 61.73 44.7858 61.87C44.3858 62.01 43.9525 62.08 43.4858 62.08C42.9525 62.08 42.4225 62 41.8958 61.84C41.3758 61.6733 40.9125 61.4467 40.5058 61.16L41.1158 59.97C41.1758 60.03 41.2825 60.11 41.4358 60.21C41.5891 60.3033 41.7758 60.4 41.9958 60.5C42.2158 60.5933 42.4558 60.6733 42.7158 60.74C42.9758 60.8067 43.2391 60.84 43.5058 60.84C44.2658 60.84 44.6458 60.5967 44.6458 60.11C44.6458 59.9033 44.5691 59.7367 44.4158 59.61C44.2625 59.4833 44.0458 59.3767 43.7658 59.29C43.4925 59.2033 43.1725 59.1067 42.8058 59C42.3525 58.8733 41.9758 58.7333 41.6758 58.58C41.3825 58.42 41.1625 58.2233 41.0158 57.99C40.8691 57.75 40.7958 57.4467 40.7958 57.08C40.7958 56.5933 40.9091 56.1867 41.1358 55.86C41.3691 55.5267 41.6825 55.2767 42.0758 55.11C42.4691 54.9367 42.9058 54.85 43.3858 54.85C43.8791 54.85 44.3391 54.93 44.7658 55.09C45.1925 55.25 45.5591 55.4333 45.8658 55.64L45.2558 56.76ZM52.4686 56.11H50.1986V62H48.8286V56.11H46.5586V54.9H52.4686V56.11ZM17.4955 76V68.9H20.0755C20.8489 68.9 21.4955 69.06 22.0155 69.38C22.5355 69.6933 22.9255 70.12 23.1855 70.66C23.4455 71.1933 23.5755 71.7867 23.5755 72.44C23.5755 73.16 23.4322 73.7867 23.1455 74.32C22.8589 74.8533 22.4522 75.2667 21.9255 75.56C21.3989 75.8533 20.7822 76 20.0755 76H17.4955ZM22.1855 72.44C22.1855 71.98 22.1022 71.5767 21.9355 71.23C21.7689 70.8767 21.5289 70.6033 21.2155 70.41C20.9022 70.21 20.5222 70.11 20.0755 70.11H18.8755V74.79H20.0755C20.5289 74.79 20.9122 74.69 21.2255 74.49C21.5389 74.2833 21.7755 74.0033 21.9355 73.65C22.1022 73.29 22.1855 72.8867 22.1855 72.44ZM29.5837 74.79V76H24.6537V68.9H29.4937V70.11H26.0337V71.82H29.0237V72.94H26.0337V74.79H29.5837ZM30.6596 76V68.9H32.0396V74.79H35.6596V76H30.6596ZM36.4994 76V68.9H37.8794V76H36.4994ZM40.0908 68.9L42.0108 74.36L43.9108 68.9H45.3608L42.6708 76H41.3408L38.6408 68.9H40.0908ZM51.0486 74.79V76H46.1186V68.9H50.9586V70.11H47.4986V71.82H50.4886V72.94H47.4986V74.79H51.0486ZM52.1244 76V68.9H55.2644C55.5911 68.9 55.8911 68.9667 56.1644 69.1C56.4444 69.2333 56.6844 69.4133 56.8844 69.64C57.0911 69.8667 57.2478 70.12 57.3544 70.4C57.4678 70.68 57.5244 70.9667 57.5244 71.26C57.5244 71.7133 57.4078 72.13 57.1744 72.51C56.9478 72.89 56.6378 73.1633 56.2444 73.33L57.8644 76H56.3444L54.8844 73.62H53.5044V76H52.1244ZM53.5044 72.41H55.2344C55.4944 72.41 55.7078 72.3 55.8744 72.08C56.0478 71.8533 56.1344 71.58 56.1344 71.26C56.1344 71.04 56.0878 70.8433 55.9944 70.67C55.9011 70.4967 55.7811 70.36 55.6344 70.26C55.4944 70.16 55.3411 70.11 55.1744 70.11H53.5044V72.41ZM59.2135 68.9L60.9635 72.24L62.7435 68.9H64.2335L61.6535 73.52V76H60.2835V73.5L57.7135 68.9H59.2135Z" fill="white"/>
<rect x="102.484" y="32.441" width="79.0306" height="129.61" fill="white" stroke="white" stroke-width="2"/>
<path d="M134.156 92.231V93.441H130.096V92.231H131.516V89.201C131.436 89.301 131.299 89.4077 131.106 89.521C130.919 89.6344 130.712 89.731 130.486 89.811C130.266 89.891 130.069 89.931 129.896 89.931V88.681C130.016 88.681 130.159 88.6444 130.326 88.571C130.499 88.491 130.669 88.3977 130.836 88.291C131.009 88.1844 131.156 88.081 131.276 87.981C131.402 87.8744 131.482 87.791 131.516 87.731H132.886V92.231H134.156ZM140.047 90.511C140.047 91.0977 139.934 91.621 139.707 92.081C139.487 92.5344 139.18 92.891 138.787 93.151C138.4 93.411 137.96 93.541 137.467 93.541C136.974 93.541 136.53 93.411 136.137 93.151C135.75 92.891 135.444 92.5344 135.217 92.081C134.997 91.621 134.887 91.0977 134.887 90.511C134.887 89.9244 134.997 89.4044 135.217 88.951C135.444 88.491 135.75 88.131 136.137 87.871C136.53 87.6044 136.974 87.471 137.467 87.471C137.96 87.471 138.4 87.6044 138.787 87.871C139.18 88.131 139.487 88.491 139.707 88.951C139.934 89.4044 140.047 89.9244 140.047 90.511ZM138.697 90.511C138.697 89.9777 138.58 89.5444 138.347 89.211C138.12 88.871 137.827 88.701 137.467 88.701C137.094 88.701 136.794 88.871 136.567 89.211C136.34 89.5444 136.227 89.9777 136.227 90.511C136.227 91.0444 136.34 91.4777 136.567 91.811C136.794 92.1444 137.094 92.311 137.467 92.311C137.827 92.311 138.12 92.1444 138.347 91.811C138.58 91.4777 138.697 91.0444 138.697 90.511ZM146.19 90.511C146.19 91.0977 146.076 91.621 145.85 92.081C145.63 92.5344 145.323 92.891 144.93 93.151C144.543 93.411 144.103 93.541 143.61 93.541C143.116 93.541 142.673 93.411 142.28 93.151C141.893 92.891 141.586 92.5344 141.36 92.081C141.14 91.621 141.03 91.0977 141.03 90.511C141.03 89.9244 141.14 89.4044 141.36 88.951C141.586 88.491 141.893 88.131 142.28 87.871C142.673 87.6044 143.116 87.471 143.61 87.471C144.103 87.471 144.543 87.6044 144.93 87.871C145.323 88.131 145.63 88.491 145.85 88.951C146.076 89.4044 146.19 89.9244 146.19 90.511ZM144.84 90.511C144.84 89.9777 144.723 89.5444 144.49 89.211C144.263 88.871 143.97 88.701 143.61 88.701C143.236 88.701 142.936 88.871 142.71 89.211C142.483 89.5444 142.37 89.9777 142.37 90.511C142.37 91.0444 142.483 91.4777 142.71 91.811C142.936 92.1444 143.236 92.311 143.61 92.311C143.97 92.311 144.263 92.1444 144.49 91.811C144.723 91.4777 144.84 91.0444 144.84 90.511ZM148.682 89.271C148.376 89.271 148.096 89.2044 147.842 89.071C147.596 88.931 147.399 88.7477 147.252 88.521C147.106 88.2877 147.032 88.031 147.032 87.751C147.032 87.471 147.106 87.2177 147.252 86.991C147.399 86.7644 147.596 86.5844 147.842 86.451C148.096 86.311 148.376 86.241 148.682 86.241C148.989 86.241 149.266 86.311 149.512 86.451C149.766 86.5844 149.966 86.7644 150.112 86.991C150.259 87.2177 150.332 87.471 150.332 87.751C150.332 88.031 150.259 88.2877 150.112 88.521C149.966 88.7477 149.766 88.931 149.512 89.071C149.266 89.2044 148.989 89.271 148.682 89.271ZM147.602 92.971L150.412 89.681L153.012 86.261L153.622 86.801L150.882 90.041L148.202 93.511L147.602 92.971ZM148.682 88.601C148.876 88.601 149.042 88.5177 149.182 88.351C149.322 88.1777 149.392 87.9777 149.392 87.751C149.392 87.5244 149.322 87.3277 149.182 87.161C149.042 86.9944 148.876 86.911 148.682 86.911C148.489 86.911 148.322 86.9944 148.182 87.161C148.042 87.3277 147.972 87.5244 147.972 87.751C147.972 87.9844 148.042 88.1844 148.182 88.351C148.322 88.5177 148.489 88.601 148.682 88.601ZM152.542 93.541C152.236 93.541 151.959 93.4744 151.712 93.341C151.466 93.201 151.266 93.0177 151.112 92.791C150.966 92.5644 150.892 92.311 150.892 92.031C150.892 91.751 150.966 91.4977 151.112 91.271C151.266 91.0377 151.466 90.8544 151.712 90.721C151.959 90.581 152.236 90.511 152.542 90.511C152.849 90.511 153.126 90.581 153.372 90.721C153.626 90.8544 153.826 91.0377 153.972 91.271C154.119 91.4977 154.192 91.751 154.192 92.031C154.192 92.311 154.119 92.5644 153.972 92.791C153.826 93.0177 153.626 93.201 153.372 93.341C153.126 93.4744 152.849 93.541 152.542 93.541ZM152.542 92.871C152.742 92.871 152.909 92.7877 153.042 92.621C153.182 92.4544 153.252 92.2577 153.252 92.031C153.252 91.7977 153.182 91.5977 153.042 91.431C152.902 91.2644 152.736 91.181 152.542 91.181C152.349 91.181 152.182 91.2677 152.042 91.441C151.902 91.6077 151.832 91.8044 151.832 92.031C151.832 92.2577 151.902 92.4544 152.042 92.621C152.182 92.7877 152.349 92.871 152.542 92.871ZM122.634 102.201C122.574 102.134 122.447 102.048 122.254 101.941C122.06 101.828 121.827 101.728 121.554 101.641C121.287 101.548 121.01 101.501 120.724 101.501C119.97 101.501 119.594 101.768 119.594 102.301C119.594 102.494 119.654 102.648 119.774 102.761C119.894 102.874 120.074 102.971 120.314 103.051C120.554 103.131 120.854 103.218 121.214 103.311C121.68 103.431 122.084 103.571 122.424 103.731C122.77 103.891 123.034 104.104 123.214 104.371C123.4 104.631 123.494 104.978 123.494 105.411C123.494 105.918 123.37 106.328 123.124 106.641C122.884 106.948 122.564 107.171 122.164 107.311C121.764 107.451 121.33 107.521 120.864 107.521C120.33 107.521 119.8 107.441 119.274 107.281C118.754 107.114 118.29 106.888 117.884 106.601L118.494 105.411C118.554 105.471 118.66 105.551 118.814 105.651C118.967 105.744 119.154 105.841 119.374 105.941C119.594 106.034 119.834 106.114 120.094 106.181C120.354 106.248 120.617 106.281 120.884 106.281C121.644 106.281 122.024 106.038 122.024 105.551C122.024 105.344 121.947 105.178 121.794 105.051C121.64 104.924 121.424 104.818 121.144 104.731C120.87 104.644 120.55 104.548 120.184 104.441C119.73 104.314 119.354 104.174 119.054 104.021C118.76 103.861 118.54 103.664 118.394 103.431C118.247 103.191 118.174 102.888 118.174 102.521C118.174 102.034 118.287 101.628 118.514 101.301C118.747 100.968 119.06 100.718 119.454 100.551C119.847 100.378 120.284 100.291 120.764 100.291C121.257 100.291 121.717 100.371 122.144 100.531C122.57 100.691 122.937 100.874 123.244 101.081L122.634 102.201ZM129.467 106.231V107.441H124.537V100.341H129.377V101.551H125.917V103.261H128.907V104.381H125.917V106.231H129.467ZM129.985 103.841C129.985 103.408 130.062 102.981 130.215 102.561C130.375 102.141 130.605 101.761 130.905 101.421C131.205 101.081 131.572 100.811 132.005 100.611C132.439 100.404 132.932 100.301 133.485 100.301C134.132 100.301 134.695 100.444 135.175 100.731C135.655 101.018 136.012 101.391 136.245 101.851L135.185 102.581C135.065 102.314 134.909 102.104 134.715 101.951C134.522 101.798 134.312 101.688 134.085 101.621C133.865 101.554 133.652 101.521 133.445 101.521C133.099 101.521 132.795 101.591 132.535 101.731C132.282 101.871 132.069 102.054 131.895 102.281C131.722 102.508 131.592 102.761 131.505 103.041C131.425 103.321 131.385 103.601 131.385 103.881C131.385 104.301 131.472 104.694 131.645 105.061C131.819 105.421 132.062 105.714 132.375 105.941C132.689 106.168 133.052 106.281 133.465 106.281C133.679 106.281 133.899 106.244 134.125 106.171C134.359 106.098 134.572 105.981 134.765 105.821C134.959 105.661 135.109 105.454 135.215 105.201L136.345 105.851C136.199 106.204 135.969 106.504 135.655 106.751C135.342 106.991 134.989 107.178 134.595 107.311C134.202 107.438 133.812 107.501 133.425 107.501C132.919 107.501 132.455 107.398 132.035 107.191C131.622 106.978 131.262 106.698 130.955 106.351C130.649 105.998 130.409 105.604 130.235 105.171C130.069 104.731 129.985 104.288 129.985 103.841ZM140.281 107.491C139.714 107.491 139.231 107.398 138.831 107.211C138.438 107.018 138.118 106.754 137.871 106.421C137.631 106.088 137.454 105.711 137.341 105.291C137.228 104.864 137.171 104.421 137.171 103.961V100.341H138.551V103.961C138.551 104.354 138.604 104.728 138.711 105.081C138.818 105.434 138.998 105.721 139.251 105.941C139.504 106.161 139.844 106.271 140.271 106.271C140.711 106.271 141.058 106.161 141.311 105.941C141.564 105.714 141.744 105.424 141.851 105.071C141.958 104.718 142.011 104.348 142.011 103.961V100.341H143.381V103.961C143.381 104.448 143.321 104.904 143.201 105.331C143.088 105.758 142.904 106.134 142.651 106.461C142.404 106.781 142.084 107.034 141.691 107.221C141.298 107.401 140.828 107.491 140.281 107.491ZM144.771 107.441V100.341H147.911C148.238 100.341 148.538 100.408 148.811 100.541C149.091 100.674 149.331 100.854 149.531 101.081C149.738 101.308 149.894 101.561 150.001 101.841C150.114 102.121 150.171 102.408 150.171 102.701C150.171 103.154 150.054 103.571 149.821 103.951C149.594 104.331 149.284 104.604 148.891 104.771L150.511 107.441H148.991L147.531 105.061H146.151V107.441H144.771ZM146.151 103.851H147.881C148.141 103.851 148.354 103.741 148.521 103.521C148.694 103.294 148.781 103.021 148.781 102.701C148.781 102.481 148.734 102.284 148.641 102.111C148.548 101.938 148.428 101.801 148.281 101.701C148.141 101.601 147.988 101.551 147.821 101.551H146.151V103.851ZM151.421 107.441V100.341H152.801V107.441H151.421ZM159.593 101.551H157.323V107.441H155.953V101.551H153.683V100.341H159.593V101.551ZM161.274 100.341L163.024 103.681L164.804 100.341H166.294L163.714 104.961V107.441H162.344V104.941L159.774 100.341H161.274Z" fill="black"/>
<rect x="203.969" y="59.3904" width="79.0306" height="129.61" fill="black" stroke="white" stroke-width="2"/>
<path d="M235.641 119.18V120.39H231.581V119.18H233.001V116.15C232.921 116.25 232.784 116.357 232.591 116.47C232.404 116.584 232.197 116.68 231.971 116.76C231.751 116.84 231.554 116.88 231.381 116.88V115.63C231.501 115.63 231.644 115.594 231.811 115.52C231.984 115.44 232.154 115.347 232.321 115.24C232.494 115.134 232.641 115.03 232.761 114.93C232.887 114.824 232.967 114.74 233.001 114.68H234.371V119.18H235.641ZM241.532 117.46C241.532 118.047 241.419 118.57 241.192 119.03C240.972 119.484 240.665 119.84 240.272 120.1C239.885 120.36 239.445 120.49 238.952 120.49C238.459 120.49 238.015 120.36 237.622 120.1C237.235 119.84 236.929 119.484 236.702 119.03C236.482 118.57 236.372 118.047 236.372 117.46C236.372 116.874 236.482 116.354 236.702 115.9C236.929 115.44 237.235 115.08 237.622 114.82C238.015 114.554 238.459 114.42 238.952 114.42C239.445 114.42 239.885 114.554 240.272 114.82C240.665 115.08 240.972 115.44 241.192 115.9C241.419 116.354 241.532 116.874 241.532 117.46ZM240.182 117.46C240.182 116.927 240.065 116.494 239.832 116.16C239.605 115.82 239.312 115.65 238.952 115.65C238.579 115.65 238.279 115.82 238.052 116.16C237.825 116.494 237.712 116.927 237.712 117.46C237.712 117.994 237.825 118.427 238.052 118.76C238.279 119.094 238.579 119.26 238.952 119.26C239.312 119.26 239.605 119.094 239.832 118.76C240.065 118.427 240.182 117.994 240.182 117.46ZM247.675 117.46C247.675 118.047 247.561 118.57 247.335 119.03C247.115 119.484 246.808 119.84 246.415 120.1C246.028 120.36 245.588 120.49 245.095 120.49C244.601 120.49 244.158 120.36 243.765 120.1C243.378 119.84 243.071 119.484 242.845 119.03C242.625 118.57 242.515 118.047 242.515 117.46C242.515 116.874 242.625 116.354 242.845 115.9C243.071 115.44 243.378 115.08 243.765 114.82C244.158 114.554 244.601 114.42 245.095 114.42C245.588 114.42 246.028 114.554 246.415 114.82C246.808 115.08 247.115 115.44 247.335 115.9C247.561 116.354 247.675 116.874 247.675 117.46ZM246.325 117.46C246.325 116.927 246.208 116.494 245.975 116.16C245.748 115.82 245.455 115.65 245.095 115.65C244.721 115.65 244.421 115.82 244.195 116.16C243.968 116.494 243.855 116.927 243.855 117.46C243.855 117.994 243.968 118.427 244.195 118.76C244.421 119.094 244.721 119.26 245.095 119.26C245.455 119.26 245.748 119.094 245.975 118.76C246.208 118.427 246.325 117.994 246.325 117.46ZM250.167 116.22C249.86 116.22 249.58 116.154 249.327 116.02C249.08 115.88 248.884 115.697 248.737 115.47C248.59 115.237 248.517 114.98 248.517 114.7C248.517 114.42 248.59 114.167 248.737 113.94C248.884 113.714 249.08 113.534 249.327 113.4C249.58 113.26 249.86 113.19 250.167 113.19C250.474 113.19 250.75 113.26 250.997 113.4C251.25 113.534 251.45 113.714 251.597 113.94C251.744 114.167 251.817 114.42 251.817 114.7C251.817 114.98 251.744 115.237 251.597 115.47C251.45 115.697 251.25 115.88 250.997 116.02C250.75 116.154 250.474 116.22 250.167 116.22ZM249.087 119.92L251.897 116.63L254.497 113.21L255.107 113.75L252.367 116.99L249.687 120.46L249.087 119.92ZM250.167 115.55C250.36 115.55 250.527 115.467 250.667 115.3C250.807 115.127 250.877 114.927 250.877 114.7C250.877 114.474 250.807 114.277 250.667 114.11C250.527 113.944 250.36 113.86 250.167 113.86C249.974 113.86 249.807 113.944 249.667 114.11C249.527 114.277 249.457 114.474 249.457 114.7C249.457 114.934 249.527 115.134 249.667 115.3C249.807 115.467 249.974 115.55 250.167 115.55ZM254.027 120.49C253.72 120.49 253.444 120.424 253.197 120.29C252.95 120.15 252.75 119.967 252.597 119.74C252.45 119.514 252.377 119.26 252.377 118.98C252.377 118.7 252.45 118.447 252.597 118.22C252.75 117.987 252.95 117.804 253.197 117.67C253.444 117.53 253.72 117.46 254.027 117.46C254.334 117.46 254.61 117.53 254.857 117.67C255.11 117.804 255.31 117.987 255.457 118.22C255.604 118.447 255.677 118.7 255.677 118.98C255.677 119.26 255.604 119.514 255.457 119.74C255.31 119.967 255.11 120.15 254.857 120.29C254.61 120.424 254.334 120.49 254.027 120.49ZM254.027 119.82C254.227 119.82 254.394 119.737 254.527 119.57C254.667 119.404 254.737 119.207 254.737 118.98C254.737 118.747 254.667 118.547 254.527 118.38C254.387 118.214 254.22 118.13 254.027 118.13C253.834 118.13 253.667 118.217 253.527 118.39C253.387 118.557 253.317 118.754 253.317 118.98C253.317 119.207 253.387 119.404 253.527 119.57C253.667 119.737 253.834 119.82 254.027 119.82ZM213.459 129.15C213.399 129.084 213.273 128.997 213.079 128.89C212.886 128.777 212.653 128.677 212.379 128.59C212.113 128.497 211.836 128.45 211.549 128.45C210.796 128.45 210.419 128.717 210.419 129.25C210.419 129.444 210.479 129.597 210.599 129.71C210.719 129.824 210.899 129.92 211.139 130C211.379 130.08 211.679 130.167 212.039 130.26C212.506 130.38 212.909 130.52 213.249 130.68C213.596 130.84 213.859 131.054 214.039 131.32C214.226 131.58 214.319 131.927 214.319 132.36C214.319 132.867 214.196 133.277 213.949 133.59C213.709 133.897 213.389 134.12 212.989 134.26C212.589 134.4 212.156 134.47 211.689 134.47C211.156 134.47 210.626 134.39 210.099 134.23C209.579 134.064 209.116 133.837 208.709 133.55L209.319 132.36C209.379 132.42 209.486 132.5 209.639 132.6C209.793 132.694 209.979 132.79 210.199 132.89C210.419 132.984 210.659 133.064 210.919 133.13C211.179 133.197 211.443 133.23 211.709 133.23C212.469 133.23 212.849 132.987 212.849 132.5C212.849 132.294 212.773 132.127 212.619 132C212.466 131.874 212.249 131.767 211.969 131.68C211.696 131.594 211.376 131.497 211.009 131.39C210.556 131.264 210.179 131.124 209.879 130.97C209.586 130.81 209.366 130.614 209.219 130.38C209.073 130.14 208.999 129.837 208.999 129.47C208.999 128.984 209.113 128.577 209.339 128.25C209.573 127.917 209.886 127.667 210.279 127.5C210.673 127.327 211.109 127.24 211.589 127.24C212.083 127.24 212.543 127.32 212.969 127.48C213.396 127.64 213.763 127.824 214.069 128.03L213.459 129.15ZM217.136 127.29H218.536L221.146 134.39H219.726L219.066 132.62H216.586L215.936 134.39H214.516L217.136 127.29ZM218.816 131.65L217.836 128.72L216.816 131.65H218.816ZM226.571 128.5H224.301V134.39H222.931V128.5H220.661V127.29H226.571V128.5ZM227.452 134.39V127.29H228.832V134.39H227.452ZM234.543 129.15C234.483 129.084 234.357 128.997 234.163 128.89C233.97 128.777 233.737 128.677 233.463 128.59C233.197 128.497 232.92 128.45 232.633 128.45C231.88 128.45 231.503 128.717 231.503 129.25C231.503 129.444 231.563 129.597 231.683 129.71C231.803 129.824 231.983 129.92 232.223 130C232.463 130.08 232.763 130.167 233.123 130.26C233.59 130.38 233.993 130.52 234.333 130.68C234.68 130.84 234.943 131.054 235.123 131.32C235.31 131.58 235.403 131.927 235.403 132.36C235.403 132.867 235.28 133.277 235.033 133.59C234.793 133.897 234.473 134.12 234.073 134.26C233.673 134.4 233.24 134.47 232.773 134.47C232.24 134.47 231.71 134.39 231.183 134.23C230.663 134.064 230.2 133.837 229.793 133.55L230.403 132.36C230.463 132.42 230.57 132.5 230.723 132.6C230.877 132.694 231.063 132.79 231.283 132.89C231.503 132.984 231.743 133.064 232.003 133.13C232.263 133.197 232.527 133.23 232.793 133.23C233.553 133.23 233.933 132.987 233.933 132.5C233.933 132.294 233.857 132.127 233.703 132C233.55 131.874 233.333 131.767 233.053 131.68C232.78 131.594 232.46 131.497 232.093 131.39C231.64 131.264 231.263 131.124 230.963 130.97C230.67 130.81 230.45 130.614 230.303 130.38C230.157 130.14 230.083 129.837 230.083 129.47C230.083 128.984 230.197 128.577 230.423 128.25C230.657 127.917 230.97 127.667 231.363 127.5C231.757 127.327 232.193 127.24 232.673 127.24C233.167 127.24 233.627 127.32 234.053 127.48C234.48 127.64 234.847 127.824 235.153 128.03L234.543 129.15ZM236.446 134.39V127.29H241.216V128.5H237.826V130.33H240.646V131.45H237.826V134.39H236.446ZM243.611 127.29H245.011L247.621 134.39H246.201L245.541 132.62H243.061L242.411 134.39H240.991L243.611 127.29ZM245.291 131.65L244.311 128.72L243.291 131.65H245.291ZM247.696 130.79C247.696 130.357 247.773 129.93 247.926 129.51C248.086 129.09 248.316 128.71 248.616 128.37C248.916 128.03 249.283 127.76 249.716 127.56C250.149 127.354 250.643 127.25 251.196 127.25C251.843 127.25 252.406 127.394 252.886 127.68C253.366 127.967 253.723 128.34 253.956 128.8L252.896 129.53C252.776 129.264 252.619 129.054 252.426 128.9C252.233 128.747 252.023 128.637 251.796 128.57C251.576 128.504 251.363 128.47 251.156 128.47C250.809 128.47 250.506 128.54 250.246 128.68C249.993 128.82 249.779 129.004 249.606 129.23C249.433 129.457 249.303 129.71 249.216 129.99C249.136 130.27 249.096 130.55 249.096 130.83C249.096 131.25 249.183 131.644 249.356 132.01C249.529 132.37 249.773 132.664 250.086 132.89C250.399 133.117 250.763 133.23 251.176 133.23C251.389 133.23 251.609 133.194 251.836 133.12C252.069 133.047 252.283 132.93 252.476 132.77C252.669 132.61 252.819 132.404 252.926 132.15L254.056 132.8C253.909 133.154 253.679 133.454 253.366 133.7C253.053 133.94 252.699 134.127 252.306 134.26C251.913 134.387 251.523 134.45 251.136 134.45C250.629 134.45 250.166 134.347 249.746 134.14C249.333 133.927 248.973 133.647 248.666 133.3C248.359 132.947 248.119 132.554 247.946 132.12C247.779 131.68 247.696 131.237 247.696 130.79ZM260.291 128.5H258.021V134.39H256.651V128.5H254.381V127.29H260.291V128.5ZM261.173 134.39V127.29H262.553V134.39H261.173ZM267.064 134.44C266.544 134.44 266.071 134.34 265.644 134.14C265.224 133.94 264.861 133.67 264.554 133.33C264.254 132.984 264.021 132.597 263.854 132.17C263.687 131.737 263.604 131.294 263.604 130.84C263.604 130.367 263.691 129.917 263.864 129.49C264.037 129.057 264.281 128.674 264.594 128.34C264.907 128 265.274 127.734 265.694 127.54C266.121 127.34 266.587 127.24 267.094 127.24C267.607 127.24 268.074 127.344 268.494 127.55C268.921 127.757 269.284 128.034 269.584 128.38C269.891 128.727 270.124 129.117 270.284 129.55C270.451 129.977 270.534 130.414 270.534 130.86C270.534 131.327 270.447 131.777 270.274 132.21C270.101 132.637 269.857 133.02 269.544 133.36C269.237 133.694 268.871 133.957 268.444 134.15C268.024 134.344 267.564 134.44 267.064 134.44ZM265.004 130.84C265.004 131.254 265.084 131.64 265.244 132C265.411 132.36 265.647 132.654 265.954 132.88C266.267 133.107 266.641 133.22 267.074 133.22C267.521 133.22 267.897 133.104 268.204 132.87C268.511 132.637 268.744 132.337 268.904 131.97C269.064 131.604 269.144 131.227 269.144 130.84C269.144 130.427 269.061 130.04 268.894 129.68C268.727 129.32 268.487 129.03 268.174 128.81C267.867 128.584 267.501 128.47 267.074 128.47C266.627 128.47 266.251 128.587 265.944 128.82C265.637 129.054 265.404 129.354 265.244 129.72C265.084 130.08 265.004 130.454 265.004 130.84ZM272.973 129.83V134.39H271.593V127.29H272.693L276.363 131.97V127.3H277.743V134.39H276.593L272.973 129.83Z" fill="white"/>
</svg>
