<svg width="600" height="440" viewBox="0 0 600 440" fill="none" xmlns="http://www.w3.org/2000/svg">
<g clip-path="url(#clip0)">
<path opacity="0.1" d="M339.378 59.9044C300.918 59.959 263.9 48.3782 228.492 35.5131C193.083 22.6479 157.948 8.24158 120.204 2.13692C95.9294 -1.78712 68.3263 -1.42641 49.3514 12.8214C31.0864 26.5282 25.7973 49.2144 23.2454 70.1735C21.3263 85.9407 20.4413 102.489 27.629 116.912C32.6197 126.924 41.1604 135.177 47.1801 144.719C68.1925 177.915 55.5563 220.32 35.1356 254.286C25.5607 270.223 14.3445 285.498 7.10538 302.347C-0.133696 319.197 -3.10239 338.303 4.28075 354.934C11.597 371.417 28.1229 383.38 45.8579 391.551C81.8732 408.176 123.805 411.739 164.611 413.111C254.937 416.155 345.438 409.947 435.698 403.738C469.1 401.443 502.65 399.131 535.363 392.48C553.525 388.791 572.227 383.315 585.105 371.313C601.451 356.076 604.795 331.198 592.9 313.316C572.952 283.323 520.355 277.666 506.051 245.214C498.164 227.348 504.966 206.859 514.983 189.638C536.469 152.688 573.451 119.59 574.074 78.2621C574.501 49.8812 555.269 22.1943 526.544 9.85928C496.435 -3.06052 455.383 0.262343 434.288 24.3421C412.597 49.1488 373.335 59.8661 339.378 59.9044Z" fill="#DBDBDB"/>
<path d="M510.661 352.704C510.661 352.704 504.338 348.272 498.072 351.425C498.072 351.425 500.001 355.371 507.935 354.999L510.661 352.704Z" fill="#DBDBDB"/>
<path d="M511.464 352.939C511.464 352.939 513.388 360.721 508.562 366.017C508.562 366.017 505.66 362.809 508.562 354.95L511.464 352.939Z" fill="#DBDBDB"/>
<path d="M519.326 345.468C519.326 345.468 518.857 338.849 504.786 341.047C504.786 341.047 504.719 345.315 509.658 347.337C514.597 349.359 516.861 347.654 519.326 345.468Z" fill="#DBDBDB"/>
<path d="M520.211 345.424C520.211 345.424 526.158 347.452 520.854 361.47C520.854 361.47 516.928 360.541 516.223 354.961C515.518 349.381 517.607 347.457 520.211 345.424Z" fill="#DBDBDB"/>
<path d="M528.155 336.035C528.155 336.035 528.962 325.143 514.582 326.258C514.582 326.258 513.553 336.095 525.618 338.653L528.155 336.035Z" fill="#DBDBDB"/>
<path d="M537.657 323.738C537.657 323.738 535.687 311.392 521.312 315.07C521.312 315.07 521.26 325.744 535.311 326.679L537.657 323.738Z" fill="#DBDBDB"/>
<path d="M544.603 311.026C544.603 311.026 541.3 299.003 527.059 302.599C527.059 302.599 530.449 313.414 543.657 313.245L544.603 311.026Z" fill="#DBDBDB"/>
<path d="M551.199 298.609C551.199 298.609 547.973 286.132 534.221 289.865C534.221 289.865 538.81 301.719 550.289 300.719L551.199 298.609Z" fill="#DBDBDB"/>
<path d="M555.449 286.815C555.449 286.815 552.969 271.556 540.148 274.934C540.148 274.934 543.873 288.815 554.508 289.039L555.449 286.815Z" fill="#DBDBDB"/>
<path d="M559.436 272.567C559.436 272.567 556.457 257.188 543.487 261.637C543.487 261.637 548.57 276.174 558.515 274.671L559.436 272.567Z" fill="#DBDBDB"/>
<path d="M561.885 259.309C561.885 259.309 557.157 243.924 547.129 244.339C547.129 244.339 551.961 260.588 561.047 262.375L561.885 259.309Z" fill="#DBDBDB"/>
<path d="M563.47 246.367C563.47 246.367 558.325 227.851 550.165 229.277C550.165 229.277 553.725 243.432 563.182 249.253L563.47 246.367Z" fill="#DBDBDB"/>
<path d="M564.365 230.928C564.365 230.928 559.539 215.499 551.503 214.882C551.503 214.882 554.785 230.064 564.206 234.939L564.365 230.928Z" fill="#DBDBDB"/>
<path d="M565.338 216.521C565.338 216.521 559.323 201.077 554.019 200.727C554.019 200.727 556.632 215.937 564.823 219.057L565.338 216.521Z" fill="#DBDBDB"/>
<path d="M566.001 203.121C566.001 203.121 562.302 186.348 556.987 184.954C556.987 184.954 557.713 198.677 565.466 204.378L566.001 203.121Z" fill="#DBDBDB"/>
<path d="M568.008 185.566C568.008 185.566 564.118 172.193 559.812 170.154C559.812 170.154 560.661 185.922 567.015 188.835L568.008 185.566Z" fill="#DBDBDB"/>
<path d="M569.67 174.089L570.452 150.512C570.452 150.512 562.4 168.285 569.089 178.227L569.67 174.089Z" fill="#DBDBDB"/>
<path d="M575.885 150.638C575.885 150.638 581.683 133.423 583.088 132.461C583.088 132.461 571.718 143.632 572.829 158L575.885 150.638Z" fill="#DBDBDB"/>
<path d="M528.546 335.953C528.546 335.953 538.743 334.538 538.44 349.846C538.44 349.846 529.225 351.441 526.215 338.779L528.546 335.953Z" fill="#DBDBDB"/>
<path d="M538.141 323.323C538.141 323.323 549.923 323.285 548.946 338.953C548.946 338.953 539.052 340.833 535.79 326.285L538.141 323.323Z" fill="#DBDBDB"/>
<path d="M544.716 312.037C544.716 312.037 555.413 306.708 562.256 320.465C562.256 320.465 552.377 324.902 543.77 314.261L544.716 312.037Z" fill="#DBDBDB"/>
<path d="M551.436 298.724C551.436 298.724 562.39 293.056 568.821 306.49C568.821 306.49 557.409 310.665 550.53 300.85L551.436 298.724Z" fill="#DBDBDB"/>
<path d="M555.31 287.149C555.31 287.149 565.852 276.453 574.264 287.269C574.264 287.269 563.496 296.073 554.826 289.531L555.31 287.149Z" fill="#DBDBDB"/>
<path d="M558.84 272.201C558.84 272.201 569.444 261.271 577.789 272.704C577.789 272.704 565.888 281.683 558.459 274.496L558.84 272.201Z" fill="#DBDBDB"/>
<path d="M560.82 258.871C560.82 258.871 568.991 245.208 578.612 248.258C578.612 248.258 570.133 262.724 560.913 262.079L560.82 258.871Z" fill="#DBDBDB"/>
<path d="M563.228 246.28C563.228 246.28 571.46 229.075 579.25 232.07C579.25 232.07 573.312 245.296 563.017 249.182L563.228 246.28Z" fill="#DBDBDB"/>
<path d="M563.799 230.031C563.799 230.031 572.263 216.489 580.191 218.145C580.191 218.145 573.271 231.879 562.976 233.95L563.799 230.031Z" fill="#DBDBDB"/>
<path d="M564.458 216.221C564.458 216.221 571.018 201.022 576.348 200.918C576.348 200.918 573.199 216.008 564.9 218.8L564.458 216.221Z" fill="#DBDBDB"/>
<path d="M565.744 202.793C565.744 202.793 573.035 187.403 578.514 187.37C578.514 187.37 574.784 200.53 565.986 204.143L565.744 202.793Z" fill="#DBDBDB"/>
<path d="M566.84 186.528C566.84 186.528 572.294 173.794 576.811 172.351C576.811 172.351 574.084 187.873 567.442 189.906L566.84 186.528Z" fill="#DBDBDB"/>
<path d="M570.318 173.625L582.507 153.901C582.507 153.901 579.384 173.357 568.538 177.401L570.318 173.625Z" fill="#DBDBDB"/>
<path d="M578.684 152.228C578.684 152.228 592.848 141.845 593.363 140.167C593.363 140.167 586.16 154.71 572.783 157.278L578.684 152.228Z" fill="#DBDBDB"/>
<path d="M579.533 147.556C579.533 147.556 595.796 130.947 599.948 130.963C599.948 130.963 586.535 131.614 579.142 146.67L579.533 147.556Z" fill="#DBDBDB"/>
<path d="M567 188.993L567.591 189.075C570.648 163.667 575.103 148.632 580.135 146.791L579.939 146.189C574.604 148.157 570.118 162.962 567 188.993Z" fill="#444053"/>
<path d="M562.503 249.755L563.398 249.832C563.589 247.46 563.733 245.034 563.83 242.612C564.684 221.582 566.007 202.268 567.746 187.791L567.231 187.108C565.487 201.618 563.789 221.511 562.935 242.574C562.837 244.979 562.693 247.394 562.503 249.755Z" fill="#444053"/>
<path d="M493.971 364.826C494.125 364.755 509.885 357.278 526.241 339.451C535.823 329.009 543.786 317.019 549.831 303.927C557.394 287.569 562.004 267.468 563.547 247.941L562.616 248.406C559.143 292.237 540.359 322.186 525.423 338.5C509.226 356.169 493.642 363.569 493.487 363.64L493.971 364.826Z" fill="#444053"/>
<path d="M534.776 46.5802H40.3989C39.2309 46.5802 38.1106 47.073 37.2847 47.9504C36.4588 48.8277 35.9948 50.0176 35.9948 51.2584V64.8887H539.18V51.2584C539.18 50.0176 538.716 48.8277 537.89 47.9504C537.065 47.073 535.944 46.5802 534.776 46.5802Z" fill="#878787"/>
<path d="M35.9948 64.8887V371.619C35.9948 374.121 36.9304 376.52 38.5957 378.289C40.2611 380.058 42.5199 381.052 44.8751 381.052H530.3C532.655 381.052 534.914 380.058 536.579 378.289C538.245 376.52 539.18 374.121 539.18 371.619V64.8887H35.9948Z" fill="#DBDBDB"/>
<path opacity="0.8" d="M43.9644 57.7839C45.101 57.7839 46.0224 56.8051 46.0224 55.5978C46.0224 54.3904 45.101 53.4117 43.9644 53.4117C42.8278 53.4117 41.9064 54.3904 41.9064 55.5978C41.9064 56.8051 42.8278 57.7839 43.9644 57.7839Z" fill="#FA5959"/>
<path opacity="0.8" d="M49.6241 57.7839C50.7607 57.7839 51.6821 56.8051 51.6821 55.5978C51.6821 54.3904 50.7607 53.4117 49.6241 53.4117C48.4874 53.4117 47.566 54.3904 47.566 55.5978C47.566 56.8051 48.4874 57.7839 49.6241 57.7839Z" fill="#FED253"/>
<path opacity="0.8" d="M55.2836 57.7839C56.4202 57.7839 57.3416 56.8051 57.3416 55.5978C57.3416 54.3904 56.4202 53.4117 55.2836 53.4117C54.147 53.4117 53.2256 54.3904 53.2256 55.5978C53.2256 56.8051 54.147 57.7839 55.2836 57.7839Z" fill="#8CCF4D"/>
<path opacity="0.05" d="M487.169 116.032H82.7684V304.921H487.169V116.032Z" fill="black"/>
<path d="M484.082 117.464H85.8555V302.189H484.082V117.464Z" fill="#878787"/>
<path d="M194.416 165.006C186.58 165.006 178.921 167.474 172.406 172.098C165.891 176.722 160.813 183.295 157.815 190.984C154.816 198.674 154.032 207.135 155.56 215.298C157.089 223.461 160.862 230.96 166.403 236.845C171.943 242.73 179.002 246.738 186.687 248.362C194.372 249.986 202.338 249.152 209.577 245.967C216.816 242.782 223.003 237.388 227.356 230.468C231.709 223.548 234.033 215.411 234.033 207.088C234.033 201.562 233.008 196.09 231.017 190.984C229.026 185.879 226.108 181.239 222.429 177.332C218.751 173.424 214.383 170.324 209.577 168.209C204.77 166.095 199.619 165.006 194.416 165.006V165.006ZM201.521 208.099V228.026H187.516V208.099C185.578 206.541 184.15 204.376 183.433 201.909C182.716 199.442 182.747 196.798 183.52 194.35C184.294 191.902 185.772 189.775 187.745 188.267C189.719 186.76 192.088 185.949 194.519 185.949C196.95 185.949 199.319 186.76 201.292 188.267C203.266 189.775 204.744 191.902 205.517 194.35C206.291 196.798 206.322 199.442 205.605 201.909C204.888 204.376 203.459 206.541 201.521 208.099V208.099Z" fill="#DBDBDB"/>
<path opacity="0.05" d="M194.416 165.006C186.58 165.006 178.921 167.474 172.406 172.098C165.891 176.722 160.813 183.295 157.815 190.984C154.816 198.674 154.032 207.135 155.56 215.298C157.089 223.461 160.862 230.96 166.403 236.845C171.943 242.73 179.002 246.738 186.687 248.362C194.372 249.986 202.338 249.152 209.577 245.967C216.816 242.782 223.003 237.388 227.356 230.468C231.709 223.548 234.033 215.411 234.033 207.088C234.033 201.562 233.008 196.09 231.017 190.984C229.026 185.879 226.108 181.239 222.429 177.332C218.751 173.424 214.383 170.324 209.577 168.209C204.77 166.095 199.619 165.006 194.416 165.006V165.006ZM201.521 208.099V228.026H187.516V208.099C185.578 206.541 184.15 204.376 183.433 201.909C182.716 199.442 182.747 196.798 183.52 194.35C184.294 191.902 185.772 189.775 187.745 188.267C189.719 186.76 192.088 185.949 194.519 185.949C196.95 185.949 199.319 186.76 201.292 188.267C203.266 189.775 204.744 191.902 205.517 194.35C206.291 196.798 206.322 199.442 205.605 201.909C204.888 204.376 203.459 206.541 201.521 208.099V208.099Z" fill="black"/>
<path d="M194.416 152.983C184.342 152.983 174.494 156.156 166.117 162.101C157.741 168.046 151.212 176.497 147.357 186.383C143.502 196.27 142.493 207.148 144.459 217.644C146.424 228.139 151.275 237.78 158.399 245.347C165.522 252.914 174.598 258.067 184.479 260.155C194.359 262.242 204.601 261.171 213.908 257.076C223.216 252.98 231.171 246.046 236.768 237.148C242.365 228.25 245.352 217.79 245.352 207.088C245.352 192.739 239.985 178.977 230.433 168.83C220.881 158.683 207.925 152.983 194.416 152.983V152.983ZM203.548 208.389V234.005H185.541V208.389C183.048 206.385 181.211 203.6 180.288 200.428C179.366 197.255 179.405 193.855 180.4 190.707C181.395 187.559 183.295 184.822 185.833 182.883C188.371 180.945 191.419 179.902 194.545 179.902C197.671 179.902 200.718 180.945 203.256 182.883C205.794 184.822 207.694 187.559 208.689 190.707C209.684 193.855 209.723 197.255 208.801 200.428C207.878 203.6 206.041 206.385 203.548 208.389V208.389Z" fill="#DBDBDB"/>
<path d="M431.088 199.989H266.447V218.571H431.088V199.989Z" fill="#DBDBDB"/>
<path d="M431.088 233.873H395.587V252.455H431.088V233.873Z" fill="#DBDBDB"/>
<path d="M282.653 209.001H279.674L282.324 206.192C282.372 206.14 282.398 206.07 282.398 205.998C282.398 205.926 282.372 205.856 282.324 205.804C282.3 205.778 282.272 205.758 282.24 205.744C282.209 205.73 282.175 205.723 282.141 205.723C282.108 205.723 282.074 205.73 282.043 205.744C282.011 205.758 281.983 205.778 281.959 205.804L279.309 208.619V205.449C279.309 205.376 279.282 205.307 279.234 205.256C279.186 205.204 279.12 205.176 279.052 205.176C278.984 205.177 278.919 205.206 278.871 205.257C278.823 205.308 278.796 205.377 278.795 205.449V208.619L276.15 205.788C276.126 205.762 276.098 205.742 276.066 205.728C276.035 205.714 276.001 205.707 275.967 205.707C275.933 205.707 275.9 205.714 275.868 205.728C275.837 205.742 275.809 205.762 275.785 205.788C275.737 205.84 275.711 205.909 275.711 205.982C275.711 206.054 275.737 206.124 275.785 206.176L278.434 208.985H275.45C275.383 208.986 275.318 209.015 275.27 209.066C275.222 209.117 275.194 209.186 275.193 209.258C275.193 209.331 275.22 209.4 275.268 209.451C275.317 209.503 275.382 209.531 275.45 209.531H278.434L275.785 212.346C275.737 212.398 275.711 212.468 275.711 212.54C275.711 212.612 275.737 212.682 275.785 212.734C275.834 212.783 275.9 212.811 275.967 212.811C276.035 212.811 276.101 212.783 276.15 212.734L278.795 209.919V213.084C278.795 213.156 278.822 213.226 278.87 213.277C278.918 213.328 278.984 213.357 279.052 213.357C279.12 213.357 279.186 213.328 279.234 213.277C279.282 213.226 279.309 213.156 279.309 213.084V209.919L281.959 212.734C282.008 212.783 282.074 212.811 282.141 212.811C282.209 212.811 282.275 212.783 282.324 212.734C282.372 212.682 282.398 212.612 282.398 212.54C282.398 212.468 282.372 212.398 282.324 212.346L279.674 209.531H282.653C282.722 209.531 282.787 209.503 282.835 209.451C282.884 209.4 282.911 209.331 282.911 209.258C282.907 209.188 282.878 209.123 282.83 209.075C282.782 209.028 282.719 209.001 282.653 209.001Z" fill="#DBDBDB"/>
<path d="M293.458 209.001H290.479L293.129 206.192C293.176 206.14 293.203 206.07 293.203 205.998C293.203 205.926 293.176 205.856 293.129 205.804C293.105 205.778 293.076 205.758 293.045 205.744C293.014 205.73 292.98 205.723 292.946 205.723C292.912 205.723 292.879 205.73 292.847 205.744C292.816 205.758 292.787 205.778 292.764 205.804L290.114 208.619V205.449C290.114 205.376 290.087 205.307 290.038 205.256C289.99 205.204 289.925 205.176 289.857 205.176C289.789 205.177 289.724 205.206 289.676 205.257C289.628 205.308 289.601 205.377 289.599 205.449V208.619L286.955 205.788C286.931 205.762 286.902 205.742 286.871 205.728C286.84 205.714 286.806 205.707 286.772 205.707C286.738 205.707 286.705 205.714 286.673 205.728C286.642 205.742 286.613 205.762 286.589 205.788C286.542 205.84 286.515 205.909 286.515 205.982C286.515 206.054 286.542 206.124 286.589 206.176L289.239 208.985H286.255C286.187 208.986 286.123 209.015 286.075 209.066C286.027 209.117 285.999 209.186 285.998 209.258C285.998 209.331 286.025 209.4 286.073 209.451C286.121 209.503 286.187 209.531 286.255 209.531H289.239L286.589 212.346C286.542 212.398 286.515 212.468 286.515 212.54C286.515 212.612 286.542 212.682 286.589 212.734C286.639 212.783 286.704 212.811 286.772 212.811C286.84 212.811 286.905 212.783 286.955 212.734L289.599 209.919V213.084C289.599 213.156 289.626 213.226 289.675 213.277C289.723 213.328 289.788 213.357 289.857 213.357C289.925 213.357 289.99 213.328 290.038 213.277C290.087 213.226 290.114 213.156 290.114 213.084V209.919L292.764 212.734C292.813 212.783 292.878 212.811 292.946 212.811C293.014 212.811 293.079 212.783 293.129 212.734C293.176 212.682 293.203 212.612 293.203 212.54C293.203 212.468 293.176 212.398 293.129 212.346L290.479 209.531H293.458C293.526 209.531 293.592 209.503 293.64 209.451C293.688 209.4 293.715 209.331 293.715 209.258C293.711 209.188 293.683 209.123 293.635 209.075C293.587 209.028 293.524 209.001 293.458 209.001Z" fill="#DBDBDB"/>
<path d="M304.263 209.001H301.284L303.933 206.192C303.981 206.14 304.007 206.07 304.007 205.998C304.007 205.926 303.981 205.856 303.933 205.804C303.909 205.778 303.881 205.758 303.85 205.744C303.818 205.73 303.785 205.723 303.751 205.723C303.717 205.723 303.683 205.73 303.652 205.744C303.62 205.758 303.592 205.778 303.568 205.804L300.918 208.619V205.449C300.918 205.376 300.891 205.307 300.843 205.256C300.795 205.204 300.729 205.176 300.661 205.176C300.593 205.177 300.529 205.206 300.481 205.257C300.433 205.308 300.405 205.377 300.404 205.449V208.619L297.759 205.788C297.735 205.762 297.707 205.742 297.676 205.728C297.644 205.714 297.611 205.707 297.577 205.707C297.543 205.707 297.509 205.714 297.478 205.728C297.446 205.742 297.418 205.762 297.394 205.788C297.346 205.84 297.32 205.909 297.32 205.982C297.32 206.054 297.346 206.124 297.394 206.176L300.044 208.985H297.06C296.992 208.986 296.927 209.015 296.879 209.066C296.831 209.117 296.804 209.186 296.802 209.258C296.802 209.331 296.829 209.4 296.878 209.451C296.926 209.503 296.991 209.531 297.06 209.531H300.044L297.394 212.346C297.346 212.398 297.32 212.468 297.32 212.54C297.32 212.612 297.346 212.682 297.394 212.734C297.443 212.783 297.509 212.811 297.577 212.811C297.644 212.811 297.71 212.783 297.759 212.734L300.404 209.919V213.084C300.404 213.156 300.431 213.226 300.479 213.277C300.527 213.328 300.593 213.357 300.661 213.357C300.729 213.357 300.795 213.328 300.843 213.277C300.891 213.226 300.918 213.156 300.918 213.084V209.919L303.568 212.734C303.618 212.783 303.683 212.811 303.751 212.811C303.818 212.811 303.884 212.783 303.933 212.734C303.981 212.682 304.007 212.612 304.007 212.54C304.007 212.468 303.981 212.398 303.933 212.346L301.284 209.531H304.263C304.331 209.531 304.396 209.503 304.444 209.451C304.493 209.4 304.52 209.331 304.52 209.258C304.516 209.188 304.487 209.123 304.439 209.075C304.391 209.028 304.328 209.001 304.263 209.001Z" fill="#DBDBDB"/>
<path d="M315.067 209.001H312.088L314.738 206.192C314.785 206.14 314.812 206.07 314.812 205.998C314.812 205.926 314.785 205.856 314.738 205.804C314.714 205.778 314.686 205.758 314.654 205.744C314.623 205.73 314.589 205.723 314.555 205.723C314.521 205.723 314.488 205.73 314.456 205.744C314.425 205.758 314.397 205.778 314.373 205.804L311.723 208.619V205.449C311.723 205.376 311.696 205.307 311.648 205.256C311.599 205.204 311.534 205.176 311.466 205.176C311.398 205.177 311.333 205.206 311.285 205.257C311.237 205.308 311.21 205.377 311.208 205.449V208.619L308.564 205.788C308.54 205.762 308.512 205.742 308.48 205.728C308.449 205.714 308.415 205.707 308.381 205.707C308.347 205.707 308.314 205.714 308.282 205.728C308.251 205.742 308.223 205.762 308.199 205.788C308.151 205.84 308.125 205.909 308.125 205.982C308.125 206.054 308.151 206.124 308.199 206.176L310.848 208.985H307.864C307.796 208.986 307.732 209.015 307.684 209.066C307.636 209.117 307.608 209.186 307.607 209.258C307.607 209.331 307.634 209.4 307.682 209.451C307.731 209.503 307.796 209.531 307.864 209.531H310.848L308.199 212.346C308.151 212.398 308.125 212.468 308.125 212.54C308.125 212.612 308.151 212.682 308.199 212.734C308.248 212.783 308.313 212.811 308.381 212.811C308.449 212.811 308.514 212.783 308.564 212.734L311.208 209.919V213.084C311.208 213.156 311.236 213.226 311.284 213.277C311.332 213.328 311.397 213.357 311.466 213.357C311.534 213.357 311.599 213.328 311.648 213.277C311.696 213.226 311.723 213.156 311.723 213.084V209.919L314.373 212.734C314.422 212.783 314.487 212.811 314.555 212.811C314.623 212.811 314.688 212.783 314.738 212.734C314.785 212.682 314.812 212.612 314.812 212.54C314.812 212.468 314.785 212.398 314.738 212.346L312.088 209.531H315.067C315.135 209.531 315.201 209.503 315.249 209.451C315.297 209.4 315.324 209.331 315.324 209.258C315.321 209.188 315.292 209.123 315.244 209.075C315.196 209.028 315.133 209.001 315.067 209.001Z" fill="#DBDBDB"/>
<path d="M325.872 209.001H322.893L325.543 206.192C325.59 206.14 325.617 206.07 325.617 205.998C325.617 205.926 325.59 205.856 325.543 205.804C325.519 205.778 325.49 205.758 325.459 205.744C325.427 205.73 325.394 205.723 325.36 205.723C325.326 205.723 325.292 205.73 325.261 205.744C325.23 205.758 325.201 205.778 325.177 205.804L322.528 208.619V205.449C322.528 205.376 322.5 205.307 322.452 205.256C322.404 205.204 322.339 205.176 322.27 205.176C322.202 205.177 322.138 205.206 322.09 205.257C322.042 205.308 322.014 205.377 322.013 205.449V208.619L319.368 205.788C319.345 205.762 319.316 205.742 319.285 205.728C319.253 205.714 319.22 205.707 319.186 205.707C319.152 205.707 319.118 205.714 319.087 205.728C319.056 205.742 319.027 205.762 319.003 205.788C318.956 205.84 318.929 205.909 318.929 205.982C318.929 206.054 318.956 206.124 319.003 206.176L321.653 208.985H318.669C318.601 208.986 318.536 209.015 318.488 209.066C318.44 209.117 318.413 209.186 318.411 209.258C318.411 209.331 318.439 209.4 318.487 209.451C318.535 209.503 318.601 209.531 318.669 209.531H321.653L319.003 212.346C318.956 212.398 318.929 212.468 318.929 212.54C318.929 212.612 318.956 212.682 319.003 212.734C319.053 212.783 319.118 212.811 319.186 212.811C319.254 212.811 319.319 212.783 319.368 212.734L322.013 209.919V213.084C322.013 213.156 322.04 213.226 322.088 213.277C322.137 213.328 322.202 213.357 322.27 213.357C322.339 213.357 322.404 213.328 322.452 213.277C322.5 213.226 322.528 213.156 322.528 213.084V209.919L325.177 212.734C325.227 212.783 325.292 212.811 325.36 212.811C325.428 212.811 325.493 212.783 325.543 212.734C325.59 212.682 325.617 212.612 325.617 212.54C325.617 212.468 325.59 212.398 325.543 212.346L322.893 209.531H325.872C325.94 209.531 326.005 209.503 326.054 209.451C326.102 209.4 326.129 209.331 326.129 209.258C326.125 209.188 326.096 209.123 326.048 209.075C326.001 209.028 325.937 209.001 325.872 209.001Z" fill="#DBDBDB"/>
<path d="M336.676 209.001H333.697L336.347 206.192C336.395 206.14 336.421 206.07 336.421 205.998C336.421 205.926 336.395 205.856 336.347 205.804C336.323 205.778 336.295 205.758 336.263 205.744C336.232 205.73 336.198 205.723 336.164 205.723C336.131 205.723 336.097 205.73 336.066 205.744C336.034 205.758 336.006 205.778 335.982 205.804L333.332 208.619V205.449C333.332 205.376 333.305 205.307 333.257 205.256C333.209 205.204 333.143 205.176 333.075 205.176C333.007 205.177 332.942 205.206 332.894 205.257C332.846 205.308 332.819 205.377 332.818 205.449V208.619L330.173 205.788C330.149 205.762 330.121 205.742 330.089 205.728C330.058 205.714 330.024 205.707 329.99 205.707C329.956 205.707 329.923 205.714 329.891 205.728C329.86 205.742 329.832 205.762 329.808 205.788C329.76 205.84 329.734 205.909 329.734 205.982C329.734 206.054 329.76 206.124 329.808 206.176L332.457 208.985H329.473C329.406 208.986 329.341 209.015 329.293 209.066C329.245 209.117 329.217 209.186 329.216 209.258C329.216 209.331 329.243 209.4 329.291 209.451C329.34 209.503 329.405 209.531 329.473 209.531H332.457L329.808 212.346C329.76 212.398 329.734 212.468 329.734 212.54C329.734 212.612 329.76 212.682 329.808 212.734C329.857 212.783 329.923 212.811 329.99 212.811C330.058 212.811 330.123 212.783 330.173 212.734L332.818 209.919V213.084C332.818 213.156 332.845 213.226 332.893 213.277C332.941 213.328 333.007 213.357 333.075 213.357C333.143 213.357 333.209 213.328 333.257 213.277C333.305 213.226 333.332 213.156 333.332 213.084V209.919L335.982 212.734C336.031 212.783 336.097 212.811 336.164 212.811C336.232 212.811 336.298 212.783 336.347 212.734C336.395 212.682 336.421 212.612 336.421 212.54C336.421 212.468 336.395 212.398 336.347 212.346L333.697 209.531H336.676C336.745 209.531 336.81 209.503 336.858 209.451C336.907 209.4 336.934 209.331 336.934 209.258C336.93 209.188 336.901 209.123 336.853 209.075C336.805 209.028 336.742 209.001 336.676 209.001Z" fill="#DBDBDB"/>
<path d="M347.481 209.001H344.502L347.152 206.192C347.199 206.14 347.226 206.07 347.226 205.998C347.226 205.926 347.199 205.856 347.152 205.804C347.128 205.778 347.099 205.758 347.068 205.744C347.037 205.73 347.003 205.723 346.969 205.723C346.935 205.723 346.902 205.73 346.87 205.744C346.839 205.758 346.81 205.778 346.786 205.804L344.137 208.619V205.449C344.137 205.376 344.11 205.307 344.061 205.256C344.013 205.204 343.948 205.176 343.88 205.176C343.812 205.177 343.747 205.206 343.699 205.257C343.651 205.308 343.624 205.377 343.622 205.449V208.619L340.978 205.788C340.954 205.762 340.925 205.742 340.894 205.728C340.863 205.714 340.829 205.707 340.795 205.707C340.761 205.707 340.727 205.714 340.696 205.728C340.665 205.742 340.636 205.762 340.612 205.788C340.565 205.84 340.538 205.909 340.538 205.982C340.538 206.054 340.565 206.124 340.612 206.176L343.262 208.985H340.278C340.21 208.986 340.145 209.015 340.098 209.066C340.05 209.117 340.022 209.186 340.021 209.258C340.021 209.331 340.048 209.4 340.096 209.451C340.144 209.503 340.21 209.531 340.278 209.531H343.262L340.612 212.346C340.565 212.398 340.538 212.468 340.538 212.54C340.538 212.612 340.565 212.682 340.612 212.734C340.662 212.783 340.727 212.811 340.795 212.811C340.863 212.811 340.928 212.783 340.978 212.734L343.622 209.919V213.084C343.622 213.156 343.649 213.226 343.698 213.277C343.746 213.328 343.811 213.357 343.88 213.357C343.948 213.357 344.013 213.328 344.061 213.277C344.11 213.226 344.137 213.156 344.137 213.084V209.919L346.786 212.734C346.836 212.783 346.901 212.811 346.969 212.811C347.037 212.811 347.102 212.783 347.152 212.734C347.199 212.682 347.226 212.612 347.226 212.54C347.226 212.468 347.199 212.398 347.152 212.346L344.502 209.531H347.481C347.549 209.531 347.615 209.503 347.663 209.451C347.711 209.4 347.738 209.331 347.738 209.258C347.734 209.188 347.706 209.123 347.658 209.075C347.61 209.028 347.547 209.001 347.481 209.001Z" fill="#DBDBDB"/>
<path d="M358.286 209.001H355.307L357.956 206.192C358.004 206.14 358.03 206.07 358.03 205.998C358.03 205.926 358.004 205.856 357.956 205.804C357.932 205.778 357.904 205.758 357.873 205.744C357.841 205.73 357.808 205.723 357.774 205.723C357.74 205.723 357.706 205.73 357.675 205.744C357.643 205.758 357.615 205.778 357.591 205.804L354.941 208.619V205.449C354.941 205.376 354.914 205.307 354.866 205.256C354.818 205.204 354.752 205.176 354.684 205.176C354.616 205.177 354.552 205.206 354.504 205.257C354.456 205.308 354.428 205.377 354.427 205.449V208.619L351.782 205.788C351.758 205.762 351.73 205.742 351.699 205.728C351.667 205.714 351.634 205.707 351.6 205.707C351.566 205.707 351.532 205.714 351.501 205.728C351.469 205.742 351.441 205.762 351.417 205.788C351.37 205.84 351.343 205.909 351.343 205.982C351.343 206.054 351.37 206.124 351.417 206.176L354.067 208.985H351.083C351.015 208.986 350.95 209.015 350.902 209.066C350.854 209.117 350.827 209.186 350.825 209.258C350.825 209.331 350.852 209.4 350.901 209.451C350.949 209.503 351.014 209.531 351.083 209.531H354.067L351.417 212.346C351.37 212.398 351.343 212.468 351.343 212.54C351.343 212.612 351.37 212.682 351.417 212.734C351.467 212.783 351.532 212.811 351.6 212.811C351.667 212.811 351.733 212.783 351.782 212.734L354.427 209.919V213.084C354.427 213.156 354.454 213.226 354.502 213.277C354.55 213.328 354.616 213.357 354.684 213.357C354.752 213.357 354.818 213.328 354.866 213.277C354.914 213.226 354.941 213.156 354.941 213.084V209.919L357.591 212.734C357.641 212.783 357.706 212.811 357.774 212.811C357.841 212.811 357.907 212.783 357.956 212.734C358.004 212.682 358.03 212.612 358.03 212.54C358.03 212.468 358.004 212.398 357.956 212.346L355.307 209.531H358.286C358.354 209.531 358.419 209.503 358.468 209.451C358.516 209.4 358.543 209.331 358.543 209.258C358.539 209.188 358.51 209.123 358.462 209.075C358.414 209.028 358.351 209.001 358.286 209.001Z" fill="#DBDBDB"/>
<path d="M369.09 209.001H366.111L368.761 206.192C368.809 206.14 368.835 206.07 368.835 205.998C368.835 205.926 368.809 205.856 368.761 205.804C368.737 205.778 368.709 205.758 368.677 205.744C368.646 205.73 368.612 205.723 368.578 205.723C368.544 205.723 368.511 205.73 368.479 205.744C368.448 205.758 368.42 205.778 368.396 205.804L365.746 208.619V205.449C365.746 205.376 365.719 205.307 365.671 205.256C365.622 205.204 365.557 205.176 365.489 205.176C365.421 205.177 365.356 205.206 365.308 205.257C365.26 205.308 365.233 205.377 365.232 205.449V208.619L362.587 205.788C362.563 205.762 362.535 205.742 362.503 205.728C362.472 205.714 362.438 205.707 362.404 205.707C362.37 205.707 362.337 205.714 362.305 205.728C362.274 205.742 362.246 205.762 362.222 205.788C362.174 205.84 362.148 205.909 362.148 205.982C362.148 206.054 362.174 206.124 362.222 206.176L364.871 208.985H361.887C361.819 208.986 361.755 209.015 361.707 209.066C361.659 209.117 361.631 209.186 361.63 209.258C361.63 209.331 361.657 209.4 361.705 209.451C361.754 209.503 361.819 209.531 361.887 209.531H364.871L362.222 212.346C362.174 212.398 362.148 212.468 362.148 212.54C362.148 212.612 362.174 212.682 362.222 212.734C362.271 212.783 362.336 212.811 362.404 212.811C362.472 212.811 362.537 212.783 362.587 212.734L365.232 209.919V213.084C365.232 213.156 365.259 213.226 365.307 213.277C365.355 213.328 365.421 213.357 365.489 213.357C365.557 213.357 365.622 213.328 365.671 213.277C365.719 213.226 365.746 213.156 365.746 213.084V209.919L368.396 212.734C368.445 212.783 368.511 212.811 368.578 212.811C368.646 212.811 368.712 212.783 368.761 212.734C368.809 212.682 368.835 212.612 368.835 212.54C368.835 212.468 368.809 212.398 368.761 212.346L366.111 209.531H369.09C369.159 209.531 369.224 209.503 369.272 209.451C369.321 209.4 369.348 209.331 369.348 209.258C369.344 209.188 369.315 209.123 369.267 209.075C369.219 209.028 369.156 209.001 369.09 209.001Z" fill="#DBDBDB"/>
<path d="M379.895 209.001H376.916L379.566 206.192C379.613 206.14 379.64 206.07 379.64 205.998C379.64 205.926 379.613 205.856 379.566 205.804C379.542 205.778 379.513 205.758 379.482 205.744C379.451 205.73 379.417 205.723 379.383 205.723C379.349 205.723 379.315 205.73 379.284 205.744C379.253 205.758 379.224 205.778 379.2 205.804L376.551 208.619V205.449C376.551 205.376 376.523 205.307 376.475 205.256C376.427 205.204 376.362 205.176 376.293 205.176C376.226 205.177 376.161 205.206 376.113 205.257C376.065 205.308 376.037 205.377 376.036 205.449V208.619L373.392 205.788C373.368 205.762 373.339 205.742 373.308 205.728C373.276 205.714 373.243 205.707 373.209 205.707C373.175 205.707 373.141 205.714 373.11 205.728C373.079 205.742 373.05 205.762 373.026 205.788C372.979 205.84 372.952 205.909 372.952 205.982C372.952 206.054 372.979 206.124 373.026 206.176L375.676 208.985H372.692C372.624 208.986 372.559 209.015 372.511 209.066C372.463 209.117 372.436 209.186 372.435 209.258C372.435 209.331 372.462 209.4 372.51 209.451C372.558 209.503 372.624 209.531 372.692 209.531H375.676L373.026 212.346C372.979 212.398 372.952 212.468 372.952 212.54C372.952 212.612 372.979 212.682 373.026 212.734C373.076 212.783 373.141 212.811 373.209 212.811C373.277 212.811 373.342 212.783 373.392 212.734L376.036 209.919V213.084C376.036 213.156 376.063 213.226 376.111 213.277C376.16 213.328 376.225 213.357 376.293 213.357C376.362 213.357 376.427 213.328 376.475 213.277C376.523 213.226 376.551 213.156 376.551 213.084V209.919L379.2 212.734C379.25 212.783 379.315 212.811 379.383 212.811C379.451 212.811 379.516 212.783 379.566 212.734C379.613 212.682 379.64 212.612 379.64 212.54C379.64 212.468 379.613 212.398 379.566 212.346L376.916 209.531H379.895C379.963 209.531 380.029 209.503 380.077 209.451C380.125 209.4 380.152 209.331 380.152 209.258C380.148 209.188 380.119 209.123 380.072 209.075C380.024 209.028 379.961 209.001 379.895 209.001Z" fill="#DBDBDB"/>
<path d="M390.7 209.001H387.721L390.37 206.192C390.418 206.14 390.444 206.07 390.444 205.998C390.444 205.926 390.418 205.856 390.37 205.804C390.346 205.778 390.318 205.758 390.287 205.744C390.255 205.73 390.222 205.723 390.188 205.723C390.154 205.723 390.12 205.73 390.089 205.744C390.057 205.758 390.029 205.778 390.005 205.804L387.355 208.619V205.449C387.355 205.376 387.328 205.307 387.28 205.256C387.232 205.204 387.166 205.176 387.098 205.176C387.03 205.177 386.966 205.206 386.918 205.257C386.87 205.308 386.842 205.377 386.841 205.449V208.619L384.196 205.788C384.172 205.762 384.144 205.742 384.113 205.728C384.081 205.714 384.048 205.707 384.014 205.707C383.98 205.707 383.946 205.714 383.915 205.728C383.883 205.742 383.855 205.762 383.831 205.788C383.783 205.84 383.757 205.909 383.757 205.982C383.757 206.054 383.783 206.124 383.831 206.176L386.481 208.985H383.497C383.429 208.986 383.364 209.015 383.316 209.066C383.268 209.117 383.241 209.186 383.239 209.258C383.239 209.331 383.266 209.4 383.315 209.451C383.363 209.503 383.428 209.531 383.497 209.531H386.481L383.831 212.346C383.783 212.398 383.757 212.468 383.757 212.54C383.757 212.612 383.783 212.682 383.831 212.734C383.88 212.783 383.946 212.811 384.014 212.811C384.081 212.811 384.147 212.783 384.196 212.734L386.841 209.919V213.084C386.841 213.156 386.868 213.226 386.916 213.277C386.964 213.328 387.03 213.357 387.098 213.357C387.166 213.357 387.232 213.328 387.28 213.277C387.328 213.226 387.355 213.156 387.355 213.084V209.919L390.005 212.734C390.054 212.783 390.12 212.811 390.188 212.811C390.255 212.811 390.321 212.783 390.37 212.734C390.418 212.682 390.444 212.612 390.444 212.54C390.444 212.468 390.418 212.398 390.37 212.346L387.721 209.531H390.7C390.768 209.531 390.833 209.503 390.881 209.451C390.93 209.4 390.957 209.331 390.957 209.258C390.953 209.188 390.924 209.123 390.876 209.075C390.828 209.028 390.765 209.001 390.7 209.001Z" fill="#DBDBDB"/>
<path d="M473.53 275.486C473.515 274.825 473.437 274.168 473.298 273.524C472.835 271.676 471.791 269.441 470.072 268.884C468.298 268.307 466.584 267.538 464.958 266.588C464.649 260.73 465.915 254.734 464.536 249.056C464.022 246.979 463.173 244.99 462.946 242.864C462.663 240.219 463.342 237.399 462.349 234.961C461.567 233.037 459.849 231.682 458.002 230.971C456.155 230.261 454.164 230.07 452.203 229.878C449.734 229.665 441.738 228.66 438.95 231.004C438.757 231.163 438.585 231.346 438.435 231.551C438.374 231.641 438.319 231.736 438.271 231.835L438.245 231.879C438.189 231.993 438.143 232.111 438.106 232.234C438.067 232.368 438.038 232.505 438.019 232.644C438.019 232.687 438.019 232.731 438.019 232.775C438.019 232.819 438.019 232.966 438.019 233.065V233.212C438.019 233.311 438.019 233.409 438.019 233.513C438.019 233.617 438.019 233.589 438.019 233.628C438.055 234.119 438.121 234.611 438.121 235.098C438.127 235.34 438.106 235.582 438.06 235.819C437.888 236.464 437.598 237.066 437.206 237.59L437.113 237.732C437.056 237.819 437 237.901 436.948 237.989C436.897 238.076 436.856 238.142 436.815 238.218C436.773 238.295 436.732 238.344 436.696 238.415C436.647 238.505 436.602 238.598 436.562 238.694C436.562 238.748 436.506 238.798 436.485 238.852C436.421 239 436.369 239.154 436.331 239.311C436.21 239.786 436.2 240.285 436.3 240.765C436.439 241.378 436.677 241.961 437.005 242.487C437.134 242.711 437.272 242.929 437.417 243.148L437.777 243.667C437.709 244.174 437.673 244.685 437.669 245.197C437.669 246.909 438.035 248.598 438.739 250.137C439.443 251.676 440.467 253.026 441.733 254.084C441.937 256.392 441.915 258.716 441.666 261.019C441.62 261.5 441.563 261.987 441.502 262.468C441.44 262.948 441.394 263.265 441.332 263.664C440.579 263.779 439.812 263.717 439.084 263.484C438.748 263.325 438.404 263.184 438.055 263.063C436.557 262.664 435.029 264.249 433.547 263.768C433.547 263.845 433.506 263.916 433.481 263.987C433.171 263.783 432.816 263.671 432.452 263.664C431.572 263.621 430.857 262.943 430.219 262.304L428.258 260.342C428.131 260.221 428.017 260.086 427.919 259.937C427.813 259.725 427.734 259.499 427.682 259.265C427.353 258.134 426.555 257.232 425.784 256.374C425.637 256.178 425.443 256.029 425.223 255.942C425.138 255.928 425.051 255.928 424.966 255.942C424.913 255.866 424.856 255.793 424.796 255.723C424.663 255.561 424.52 255.408 424.369 255.264C423.432 254.346 423.34 253.559 422.527 252.532C421.818 251.552 421.175 250.52 420.603 249.444C420.536 248.87 420.443 248.28 420.33 247.684C420.07 246.32 419.693 244.985 419.203 243.694L418.174 241.273L418.056 241.399C417.31 240.219 416.512 239.574 415.797 239.727C414.598 239.989 414.007 242.459 414.197 245.689L414.609 248.968C414.609 249.05 414.645 249.132 414.665 249.214C414.591 249.603 414.553 249.998 414.552 250.395C414.552 250.854 414.953 251.193 415.164 251.603C415.502 252.158 415.681 252.805 415.679 253.466C415.653 253.701 415.586 253.925 415.576 254.155C415.604 254.668 415.772 255.162 416.059 255.576L418.632 260.167L419.146 261.129L419.177 261.172C419.34 261.508 419.576 261.797 419.867 262.014C419.968 263.163 420.255 264.286 420.716 265.331C420.803 265.539 420.901 265.736 421.004 265.932C421.696 267.14 422.51 268.264 423.432 269.283L424.657 270.742C425.866 272.174 427.075 273.611 428.387 274.934C428.857 275.464 429.424 275.887 430.054 276.174C430.363 276.305 430.698 276.348 431.027 276.297C431.356 276.246 431.666 276.104 431.927 275.885C431.927 276.562 431.927 277.24 431.927 277.918C432.118 277.93 432.302 277.997 432.461 278.11C432.62 278.224 432.747 278.38 432.83 278.563C432.913 278.747 432.948 278.95 432.932 279.153C432.916 279.355 432.85 279.55 432.74 279.716C431.659 282.662 430.568 285.635 428.932 288.274C430.087 289 431.158 289.868 432.122 290.859C432.748 291.596 433.305 292.396 433.784 293.248C433.83 293.652 433.866 294.051 433.887 294.45C434.268 300.965 431.896 307.43 429.771 313.638C429.159 315.398 428.49 317.24 428.541 319.071C428.138 319.335 427.753 319.629 427.389 319.951C427.811 321.12 427.646 322.164 427.6 323.416C427.584 324.166 427.44 324.907 427.173 325.602C426.949 326.083 426.702 326.552 426.432 327.006C425.099 329.504 424.806 332.472 424.538 335.324C424.379 337.046 425.007 339.15 424.271 340.691C423 343.337 421.873 346.157 421.698 349.097C421.692 349.758 421.613 350.417 421.462 351.059C421.302 351.605 421.019 352.07 420.875 352.606C420.727 353.323 420.692 354.062 420.772 354.792C420.87 357.411 420.504 360.027 419.692 362.503C419.049 364.454 418.339 366.542 418.843 368.548C417.602 369.933 416.835 371.721 416.667 373.625C416.653 374.112 416.598 374.597 416.502 375.073C416.345 375.56 416.138 376.028 415.885 376.467C414.849 378.47 414.364 380.743 414.485 383.025C412.942 385.249 412.17 387.993 411.712 390.72C411.254 393.447 411.053 396.224 410.467 398.918C409.685 402.481 408.27 406.083 407.992 409.734C406.325 410.865 405.605 413.056 405.286 415.128C404.967 417.199 404.915 419.374 404.097 421.287C403.675 422.282 403.068 423.173 402.667 424.189C402.385 424.998 402.179 425.835 402.049 426.687C401.803 428.02 401.586 429.507 401.89 430.786C401.454 431.277 400.944 431.688 400.382 432.004C400.465 431.666 400.532 431.327 400.588 430.982C399.261 432.261 396.853 431.813 395.793 433.349C395.475 433.844 395.351 434.451 395.447 435.042C395.543 435.632 395.852 436.16 396.308 436.513C396.639 436.728 396.998 436.892 397.373 437C399.945 437.874 402.59 438.754 405.234 438.289C405.547 438.254 405.85 438.151 406.124 437.989C406.468 437.72 406.751 437.372 406.953 436.972C407.349 436.305 407.745 435.639 408.136 434.972C409.084 435.272 410.048 435.512 411.022 435.688C411.12 436.562 411.192 437.437 411.228 438.311C411.743 438.421 412.432 438.453 412.674 437.945C412.747 437.753 412.777 437.545 412.761 437.338C412.761 436.95 412.813 436.437 412.844 435.912H412.947C414.516 435.979 416.078 435.644 417.5 434.934C416.95 430.092 418.766 425.359 420.34 420.779C422.002 415.958 423.427 411.051 424.863 406.143C425.892 402.689 427.029 399.344 428.037 395.885C429.306 391.512 430.581 387.14 431.86 382.768C432.416 380.844 432.976 378.942 433.614 377.03C434.957 373.159 436.551 369.392 438.384 365.755C438.898 364.722 439.413 363.7 439.835 362.629C440.349 361.323 440.715 359.956 441.126 358.606C442.023 355.836 443.103 353.137 444.357 350.529C444.393 350.458 444.419 350.392 444.455 350.327C444.872 352.135 445.288 353.972 445.566 355.792C445.942 358.023 445.972 360.305 445.654 362.547C445.407 364.072 444.939 365.58 444.995 367.127C445.072 369.264 446.148 371.204 446.678 373.264C447.019 374.806 447.212 376.381 447.254 377.964C447.398 380.424 448.653 383.183 447.768 385.462C445.016 392.682 446.348 400.836 444.779 408.416C443.971 412.308 441.497 415.964 441.692 419.943C441.829 422.766 442.063 425.583 442.392 428.392C442.471 429.278 442.688 430.144 443.035 430.955C443.24 431.382 443.476 431.791 443.74 432.179C443.513 432.272 443.323 432.518 443.158 433.037C442.737 434.404 443.158 436.098 444.301 436.863C444.766 437.127 445.268 437.312 445.788 437.409C446.487 437.621 447.211 437.727 447.938 437.726C448.164 437.714 448.39 437.684 448.612 437.639C449.407 437.994 450.22 438.304 451.046 438.568C451.046 438.792 451.087 439.016 451.113 439.24C451.114 439.357 451.139 439.473 451.185 439.579C451.231 439.686 451.297 439.781 451.38 439.858C451.509 439.922 451.651 439.948 451.792 439.934H454.586C454.586 439.688 454.586 439.437 454.586 439.191C454.905 439.227 455.228 439.19 455.534 439.085C455.84 438.98 456.121 438.807 456.361 438.579C456.608 438.244 456.784 437.856 456.875 437.442C457.637 434.699 458.393 431.953 459.144 429.206C460.045 426.17 460.42 422.985 460.25 419.806C459.257 409.734 461.439 399.628 460.729 389.529C460.301 383.458 460.595 377.355 461.603 371.362C461.835 370.007 462.118 368.63 462.221 367.28C462.447 364.733 462.169 362.159 462.339 359.628C462.396 358.743 462.509 357.863 462.612 356.983C463.317 351.522 463.686 346.018 463.718 340.506C463.702 338.679 463.596 336.855 463.399 335.04C463.935 334.895 464.422 334.592 464.804 334.166C465.262 333.532 465.143 332.641 465.138 331.832C465.138 329.897 465.905 328.072 466.522 326.247C467.314 323.729 467.964 321.163 468.467 318.563C468.998 316.467 469.289 314.311 469.331 312.141C469.331 311.922 469.321 311.704 469.3 311.485C469.494 311.342 469.656 311.156 469.774 310.939C469.908 310.618 469.992 310.277 470.021 309.928C470.206 308.534 470.396 307.135 470.582 305.736C470.719 304.734 470.854 303.734 470.988 302.735L472.624 290.608C472.763 289.553 472.907 288.504 473.046 287.455L473.473 284.318C473.519 283.946 473.571 283.574 473.607 283.224C474.862 280.995 473.663 278.022 473.53 275.486ZM459.88 320.891C459.273 319.361 458.707 317.792 458.851 316.142H458.794C458.93 315.634 458.906 315.093 458.727 314.6C458.568 314.201 458.29 313.863 458.12 313.464C457.938 312.977 457.844 312.457 457.842 311.933C457.715 308.609 457.962 305.281 458.578 302.019C458.645 301.637 458.717 301.249 458.784 300.866C459 300.734 459.197 300.57 459.37 300.38C459.641 300.052 459.865 299.684 460.034 299.287C460.616 298.046 461.146 296.784 461.634 295.499C461.794 295.084 462.025 294.603 462.421 294.499C462.339 297.696 462.648 300.959 461.423 303.845C461.191 304.31 461.018 304.806 460.909 305.32C460.796 306.135 461.115 306.96 461.001 307.769C460.945 308.19 460.775 308.578 460.708 308.993C460.657 309.197 460.658 309.411 460.711 309.615C460.763 309.818 460.865 310.004 461.007 310.152C461.075 310.202 461.149 310.243 461.228 310.272C461.197 310.49 461.171 310.715 461.151 310.928C461.109 311.376 461.089 311.797 461.063 312.059C460.945 313.396 460.898 314.739 460.924 316.081C460.924 317.53 460.976 318.978 460.955 320.454C460.974 320.877 460.908 321.3 460.76 321.694C460.658 321.897 460.526 322.082 460.369 322.241C460.219 321.749 460.055 321.317 459.88 320.891Z" fill="url(#paint0_linear)"/>
<path d="M419.266 257.478C420.836 257.136 421.37 253.031 420.459 248.308C419.548 243.586 417.537 240.035 415.967 240.377C414.397 240.719 413.863 244.824 414.774 249.546C415.685 254.268 417.696 257.819 419.266 257.478Z" fill="#FBBEBE"/>
<path d="M443.241 433.141C442.819 434.497 443.241 436.191 444.383 436.929C444.846 437.191 445.344 437.375 445.86 437.475C446.558 437.685 447.28 437.789 448.005 437.787C448.895 437.743 449.749 437.371 450.639 437.24C450.742 437.213 450.851 437.228 450.943 437.284C450.987 437.335 451.021 437.395 451.04 437.461C451.06 437.528 451.065 437.598 451.056 437.666C451.066 438.204 451.103 438.74 451.169 439.273C451.17 439.39 451.194 439.506 451.24 439.613C451.287 439.719 451.353 439.814 451.437 439.891C451.565 439.954 451.707 439.981 451.848 439.967H454.637C454.7 437.365 454.432 434.765 453.84 432.239C453.801 432.046 453.731 431.861 453.634 431.693C453.397 431.418 453.086 431.227 452.744 431.146C452.062 430.845 451.325 430.709 450.588 430.747C449.687 430.873 448.936 431.491 448.17 432.004C447.403 432.518 446.359 432.972 445.427 432.709C444.496 432.447 443.719 431.622 443.241 433.141Z" fill="#878787"/>
<path d="M402.296 430.742C401.512 431.634 400.551 432.328 399.482 432.775L399.009 433.015C398.943 433.042 398.887 433.09 398.849 433.152C398.84 433.195 398.84 433.239 398.849 433.281C398.858 433.324 398.875 433.364 398.901 433.398C399.294 434.045 399.876 434.538 400.558 434.801C401.24 435.065 401.984 435.084 402.677 434.857C402.983 434.776 403.267 434.618 403.505 434.398C403.898 433.904 404.122 433.284 404.143 432.638C404.299 431.972 404.272 431.272 404.066 430.622C403.351 428.911 403.089 429.687 402.296 430.742Z" fill="#FBBEBE"/>
<path d="M412.988 437.475C413.004 437.682 412.974 437.89 412.9 438.082C412.658 438.585 411.984 438.557 411.46 438.448C411.38 436.594 411.169 434.748 410.827 432.928C409.829 432.879 409.108 433.884 408.573 434.786L407.194 437.109C406.995 437.509 406.714 437.856 406.371 438.125C406.095 438.286 405.793 438.388 405.481 438.426C402.847 438.891 400.187 438.011 397.645 437.136C397.271 437.03 396.912 436.868 396.58 436.655C396.127 436.302 395.82 435.775 395.724 435.186C395.628 434.597 395.75 433.991 396.066 433.496C397.131 431.966 399.523 432.403 400.851 431.135C400.712 432.028 400.484 432.901 400.171 433.742C401.946 433.458 403.14 431.731 404.57 430.578C404.93 430.254 405.363 430.036 405.826 429.944C406.173 429.913 406.522 429.952 406.855 430.059C408.504 430.5 410.047 431.306 411.382 432.425C411.923 432.879 412.766 433.518 413.003 434.218C413.255 435.054 412.988 436.584 412.988 437.475Z" fill="#878787"/>
<path d="M448.38 257.155C454.251 257.155 459.01 252.1 459.01 245.864C459.01 239.628 454.251 234.573 448.38 234.573C442.51 234.573 437.751 239.628 437.751 245.864C437.751 252.1 442.51 257.155 448.38 257.155Z" fill="#FBBEBE"/>
<path d="M469.321 312.529C469.278 314.688 468.989 316.833 468.462 318.918C467.958 321.507 467.309 324.062 466.517 326.569C465.905 328.389 465.138 330.215 465.143 332.144C465.143 332.947 465.267 333.838 464.804 334.472C464.391 334.917 463.871 335.233 463.301 335.385C463.017 335.465 462.754 335.615 462.534 335.823C462.314 336.031 462.143 336.291 462.035 336.582C461.552 335.815 461.191 334.969 460.965 334.078C460.043 331.076 459.185 328.058 458.393 325.023C458.32 324.848 458.289 324.657 458.302 324.467C458.314 324.276 458.37 324.092 458.465 323.929C458.595 323.809 458.748 323.718 458.912 323.662C459.44 323.433 459.923 323.104 460.338 322.689C460.532 322.505 460.693 322.285 460.811 322.039C460.96 321.647 461.029 321.226 461.012 320.803C461.012 319.355 461.012 317.912 460.976 316.464C460.954 315.127 461.002 313.789 461.12 312.458C461.12 312.196 461.166 311.775 461.207 311.327C461.284 310.469 461.439 309.474 461.876 309.141C462.529 308.676 464.485 309.299 465.225 309.408C466.501 309.594 467.798 309.813 469.043 310.07C469.224 310.875 469.317 311.701 469.321 312.529Z" fill="#878787"/>
<path d="M426.401 258.505C425.989 259.38 425.001 259.801 424.24 260.353L421.631 262.254C421.457 262.421 421.253 262.549 421.031 262.63C420.809 262.71 420.574 262.743 420.34 262.724C420.128 262.641 419.933 262.514 419.768 262.349C419.603 262.185 419.47 261.988 419.378 261.768C419.379 261.754 419.379 261.739 419.378 261.724L418.838 260.762L416.265 256.183C415.979 255.772 415.813 255.282 415.787 254.773C415.787 254.538 415.864 254.319 415.884 254.084C415.891 253.424 415.712 252.777 415.37 252.226C415.164 251.816 414.752 251.477 414.763 251.018C414.743 250.415 414.841 249.814 415.051 249.253C415.321 248.734 415.708 248.294 416.178 247.974C416.419 247.788 416.666 247.613 416.924 247.427C417.06 247.328 417.212 247.254 417.371 247.209C417.798 247.116 418.22 247.493 418.652 247.509C420.51 248.832 421.225 251.335 422.686 253.138C423.509 254.166 423.592 254.953 424.523 255.871C424.672 256.013 424.816 256.166 424.955 256.325C425.139 256.538 425.295 256.777 425.418 257.035C425.588 257.505 426.612 258.057 426.401 258.505Z" fill="#878787"/>
<path d="M444.645 257.161C445.412 258.882 446.009 260.773 445.787 262.664C445.742 263.177 445.589 263.671 445.34 264.113C444.599 265.32 443.045 265.539 441.692 265.61C441.407 265.585 441.12 265.62 440.848 265.714C440.576 265.808 440.324 265.958 440.107 266.157C439.927 266.436 439.838 266.771 439.856 267.109C439.873 267.447 439.996 267.77 440.205 268.026C440.64 268.519 441.18 268.894 441.779 269.119C443.92 270.119 446.23 270.944 448.555 270.715C449.636 270.605 450.686 270.272 451.761 270.102C452.933 269.968 454.111 269.898 455.29 269.895C456.69 269.84 458.084 269.693 459.478 269.545L463.173 269.157C463.374 269.16 463.57 269.084 463.723 268.944C463.996 268.605 463.646 268.108 463.306 267.851C461.346 266.31 458.851 265.249 457.734 262.932C457.22 261.839 457.06 260.538 456.679 259.358C456.299 258.177 455.692 257.112 455.455 255.909C455.329 254.855 455.272 253.792 455.285 252.729C455.298 251.656 454.931 250.619 454.256 249.821C453.52 249.094 452.455 248.908 451.457 248.865C448.998 248.75 446.379 249.373 444.635 251.215C444.167 251.712 443.765 252.308 443.282 252.756C442.798 253.204 442.14 253.335 442.459 253.925C442.778 254.516 443.405 254.882 443.745 255.401C444.089 255.961 444.39 256.55 444.645 257.161Z" fill="#FBBEBE"/>
<path d="M465.601 273.059C464.952 277.268 463.897 281.394 462.452 285.372C461.726 287.169 461.107 289.013 460.6 290.892C460.204 292.586 460.281 294.401 459.916 296.101C459.463 298.216 459.01 300.336 458.645 302.468C458.032 305.722 457.787 309.043 457.914 312.36C457.915 312.882 458.01 313.399 458.192 313.884C458.362 314.278 458.635 314.617 458.794 315.021C458.913 315.376 458.962 315.754 458.937 316.13C458.913 316.507 458.815 316.873 458.65 317.207C458.386 317.833 458.028 318.409 457.59 318.912C452.795 320.432 447.665 319.934 442.669 320.257C438.065 320.552 433.408 321.558 428.87 320.721C428.356 318.535 429.215 316.245 429.951 314.114C432.086 307.922 434.448 301.473 434.067 294.986C434.027 294.229 433.946 293.475 433.825 292.729C433.079 288.132 433.892 283.372 435.194 278.918C436.001 276.142 435.965 273.185 435.78 270.294C435.689 269.355 435.676 268.409 435.744 267.468C435.819 266.507 436.155 265.59 436.711 264.829C436.711 264.79 436.758 264.752 436.783 264.714C436.809 264.676 437.01 264.681 437.169 264.714C437.21 264.732 437.254 264.742 437.298 264.742C437.342 264.742 437.386 264.732 437.427 264.714L437.483 264.676C437.505 264.659 437.531 264.65 437.558 264.65C437.585 264.65 437.611 264.659 437.632 264.676C437.751 264.752 437.818 265.014 438.075 265.064C438.455 265.125 438.838 265.163 439.222 265.178C439.684 265.193 440.143 265.263 440.591 265.386H440.653C441.322 265.506 442.008 265.444 442.649 265.206C443.075 265.093 443.486 264.924 443.873 264.703C443.987 264.572 444.697 264.451 444.841 264.359C445.309 264.058 445.206 262.648 445.304 262.069C445.358 261.488 445.488 260.917 445.69 260.374C445.924 259.974 446.247 259.64 446.631 259.403C447.015 259.166 447.448 259.032 447.892 259.014C448.778 258.991 449.663 259.075 450.531 259.265C452.45 259.555 454.416 259.505 456.299 259.975C457.245 260.21 458.28 260.566 459.149 260.107C459.386 260.167 459.422 260.385 459.422 260.653C459.4 260.908 459.351 261.159 459.278 261.402C458.948 262.91 460.065 264.298 461.094 265.391C461.529 265.907 462.042 266.341 462.612 266.676C463.126 266.927 463.641 267.031 464.155 267.304C464.572 267.54 464.926 267.884 465.184 268.304C465.481 268.786 465.68 269.327 465.771 269.895C465.881 270.952 465.824 272.022 465.601 273.059Z" fill="#878787"/>
<path opacity="0.1" d="M465.601 273.059C464.952 277.268 463.897 281.394 462.452 285.372C461.726 287.169 461.107 289.013 460.6 290.892C460.204 292.586 460.281 294.401 459.916 296.101C459.463 298.216 459.01 300.336 458.645 302.468C458.537 302.533 458.424 302.593 458.31 302.648C457.67 302.973 456.992 303.204 456.293 303.336C455.039 303.498 453.769 303.453 452.527 303.205L445.185 302.161C442.253 301.741 439.13 301.232 436.953 299.123C435.744 297.964 434.952 296.434 434.082 294.958C434.042 294.202 433.962 293.448 433.841 292.701C433.094 288.105 433.907 283.345 435.209 278.891C436.017 276.114 435.981 273.158 435.796 270.266C435.704 269.328 435.692 268.382 435.76 267.441C435.834 266.48 436.17 265.563 436.727 264.801C436.877 264.754 437.03 264.718 437.185 264.692V264.692C437.288 264.67 437.393 264.655 437.499 264.648H437.648C437.821 264.649 437.994 264.671 438.162 264.714C438.513 264.832 438.856 264.973 439.191 265.135H439.253C439.694 265.289 440.158 265.359 440.622 265.342C441.301 265.342 442.001 265.227 442.68 265.178C443.519 265.039 444.377 265.203 445.118 265.643C445.597 266.051 446.05 266.491 446.477 266.96C446.992 267.389 447.571 267.724 448.19 267.949C452.619 269.745 457.532 269.635 461.886 267.643C462.304 267.391 462.779 267.262 463.26 267.271C463.615 267.345 463.952 267.498 464.248 267.72C464.556 267.911 464.86 268.097 465.174 268.266C465.47 268.748 465.67 269.289 465.76 269.857C465.878 270.926 465.824 272.009 465.601 273.059V273.059Z" fill="black"/>
<path d="M470.082 269.441C468.034 268.776 466.065 267.859 464.217 266.709C463.92 266.489 463.584 266.336 463.229 266.26C462.747 266.254 462.271 266.382 461.85 266.632C457.498 268.624 452.586 268.733 448.159 266.938C447.541 266.711 446.962 266.376 446.446 265.949C446.018 265.482 445.565 265.042 445.088 264.632C443.395 263.468 441.054 264.834 439.161 264.085C438.825 263.926 438.481 263.785 438.132 263.664C436.634 263.266 435.111 264.85 433.64 264.369C433.092 265.95 432.688 267.582 432.431 269.244C432.222 271.153 432.11 273.072 432.096 274.994C432.096 276.147 432.045 277.3 432.096 278.453C432.278 278.485 432.451 278.556 432.605 278.662C432.759 278.769 432.891 278.908 432.992 279.071C433.059 279.261 433.087 279.465 433.073 279.668C433.058 279.871 433.003 280.068 432.909 280.246C431.834 283.181 430.743 286.148 429.112 288.777C430.262 289.505 431.329 290.37 432.292 291.357C434.093 293.379 434.978 296.215 436.922 298.084C439.114 300.189 442.237 300.702 445.155 301.118L452.497 302.162C453.74 302.409 455.011 302.455 456.268 302.298C456.965 302.163 457.641 301.93 458.28 301.604C458.697 301.419 459.077 301.152 459.401 300.817C459.673 300.49 459.896 300.121 460.065 299.724C460.646 298.489 461.176 297.226 461.665 295.948C461.835 295.494 462.092 294.964 462.555 294.926C465.282 292.313 467.855 289.635 470.581 287.023C471.677 286.058 472.66 284.957 473.509 283.744C474.862 281.618 473.632 278.606 473.509 276.038C473.494 275.381 473.416 274.727 473.277 274.087C472.835 272.223 471.796 269.993 470.082 269.441Z" fill="#DBDBDB"/>
<path opacity="0.1" d="M426.401 258.505C425.989 259.38 425.001 259.801 424.24 260.353L421.631 262.254C421.457 262.421 421.253 262.549 421.031 262.63C420.809 262.71 420.574 262.743 420.34 262.724C420.128 262.641 419.933 262.514 419.768 262.349C419.603 262.185 419.47 261.987 419.378 261.768C419.378 261.642 419.378 261.506 419.378 261.375C419.358 260.932 419.414 260.49 419.543 260.068C419.798 259.45 420.194 258.909 420.695 258.494C421.664 257.52 422.816 256.775 424.075 256.308C424.272 256.227 424.485 256.204 424.693 256.243C424.773 256.265 424.849 256.3 424.919 256.347C425.103 256.56 425.259 256.799 425.382 257.057C425.588 257.505 426.612 258.057 426.401 258.505Z" fill="black"/>
<path d="M432.544 264.266C431.669 264.222 430.954 263.55 430.316 262.91L428.366 260.986C428.236 260.869 428.121 260.733 428.027 260.582C427.921 260.37 427.842 260.144 427.79 259.91C427.377 258.806 426.729 257.818 425.897 257.024C425.752 256.828 425.557 256.681 425.336 256.598C425.127 256.557 424.911 256.58 424.713 256.663C423.453 257.129 422.301 257.875 421.333 258.85C420.832 259.265 420.436 259.806 420.181 260.424C420.051 260.845 419.995 261.287 420.016 261.73C420.028 263.174 420.333 264.598 420.911 265.905C420.999 266.107 421.096 266.31 421.199 266.506C421.886 267.712 422.697 268.832 423.617 269.846L424.842 271.299C426.046 272.731 427.25 274.163 428.557 275.48C429.025 276.011 429.593 276.432 430.224 276.715C430.54 276.853 430.886 276.895 431.224 276.837C431.562 276.779 431.878 276.623 432.138 276.387C432.384 276.084 432.57 275.731 432.683 275.349C433.475 273.163 434.226 270.889 434.273 268.534C434.284 267.591 434.246 266.647 434.16 265.708C434.082 264.714 433.419 264.326 432.544 264.266Z" fill="#DBDBDB"/>
<path d="M463.723 340.779C463.693 346.276 463.326 351.766 462.622 357.213C462.519 358.093 462.406 358.973 462.35 359.852C462.18 362.405 462.458 364.968 462.231 367.504C462.113 368.876 461.845 370.236 461.619 371.575C460.613 377.552 460.32 383.638 460.744 389.693C461.454 399.765 459.278 409.843 460.266 419.888C460.386 421.841 460.284 423.803 459.962 425.73C459.778 426.926 459.512 428.106 459.165 429.261C458.414 431.997 457.659 434.73 456.901 437.459C456.812 437.874 456.636 438.262 456.386 438.595C456.124 438.837 455.816 439.015 455.483 439.12C455.151 439.225 454.801 439.253 454.457 439.202C451.488 439.104 448.695 437.743 445.999 436.415C445.689 436.285 445.402 436.1 445.15 435.868C444.589 435.251 444.635 434.278 444.388 433.464C444.141 432.649 443.472 431.884 443.092 431.048C442.779 430.257 442.589 429.417 442.531 428.561C442.188 425.763 441.955 422.954 441.831 420.134C441.636 416.166 444.105 412.515 444.918 408.657C446.462 401.071 445.155 392.939 447.897 385.741C448.762 383.468 447.506 380.713 447.383 378.265C447.338 376.685 447.145 375.114 446.806 373.576C446.292 371.521 445.206 369.586 445.129 367.455C445.073 365.913 445.541 364.41 445.783 362.891C446.103 360.655 446.074 358.378 445.695 356.152C445.422 354.316 445.006 352.48 444.589 350.687L444.496 350.889C443.243 353.492 442.165 356.186 441.27 358.951C440.859 360.29 440.499 361.656 439.984 362.957C439.562 364.05 439.043 365.05 438.533 366.077C436.706 369.701 435.116 373.453 433.774 377.308C433.136 379.199 432.575 381.134 432.02 383.03L428.207 396.147C427.178 399.596 426.051 402.929 425.043 406.372C423.618 411.291 422.192 416.166 420.536 420.976C418.992 425.539 417.155 430.266 417.706 435.087C416.287 435.795 414.729 436.131 413.163 436.065C410.511 435.816 407.91 435.145 405.445 434.076C404.463 433.688 403.444 433.25 402.78 432.392C401.638 430.911 401.921 428.742 402.266 426.856C402.396 426.006 402.602 425.172 402.883 424.364C403.274 423.358 403.912 422.468 404.313 421.473C405.121 419.566 405.173 417.407 405.492 415.335C405.811 413.264 406.521 411.078 408.188 409.952C408.471 406.312 409.88 402.722 410.657 399.164C411.244 396.469 411.439 393.699 411.902 390.966C412.365 388.233 413.111 385.501 414.665 383.287C414.543 381.005 415.028 378.732 416.065 376.729C416.315 376.289 416.521 375.822 416.677 375.335C416.773 374.861 416.828 374.378 416.842 373.893C417.012 371.994 417.776 370.21 419.013 368.826C418.498 366.832 419.214 364.749 419.857 362.815C420.667 360.346 421.033 357.737 420.937 355.125C420.857 354.396 420.89 353.657 421.035 352.939C421.179 352.392 421.462 351.928 421.627 351.403C421.773 350.761 421.851 350.102 421.858 349.441C422.059 346.484 423.185 343.697 424.431 341.058C425.171 339.516 424.544 337.423 424.698 335.707C424.966 332.854 425.259 329.903 426.591 327.416C426.838 326.946 427.106 326.498 427.327 326.012C427.595 325.317 427.74 324.576 427.754 323.826C427.801 322.574 427.965 321.536 427.543 320.372C430.296 317.94 434.052 317.256 437.633 317.092C441.214 316.929 444.836 317.273 448.34 316.464C449.369 316.218 450.398 315.879 451.483 315.715C453.948 315.333 456.448 315.928 458.882 316.519C458.712 318.158 459.278 319.732 459.911 321.257C462.382 327.433 463.677 334.068 463.723 340.779Z" fill="#33313F"/>
<path opacity="0.1" d="M451.606 342.03L445.695 356.152C445.422 354.316 445.005 352.48 444.589 350.687L444.496 350.889V350.594L447.717 343.069L451.606 342.03Z" fill="black"/>
<path opacity="0.1" d="M469.321 312.529C468.98 312.8 468.573 312.961 468.148 312.994C467.496 313.018 466.845 312.924 466.224 312.715L461.593 311.485C461.448 311.447 461.307 311.394 461.171 311.327C461.248 310.469 461.403 309.474 461.84 309.141C462.493 308.676 464.449 309.299 465.189 309.408C466.465 309.594 467.762 309.813 469.007 310.07C469.2 310.874 469.305 311.699 469.321 312.529V312.529Z" fill="black"/>
<path d="M473.236 280.011C473.334 280.465 473.473 280.913 473.555 281.372C473.694 282.498 473.657 283.641 473.447 284.755L473.025 287.881L472.603 291.023L470.972 303.118L470.571 306.113L470.005 310.294C469.978 310.642 469.895 310.982 469.758 311.299C469.59 311.596 469.354 311.844 469.073 312.021C468.792 312.197 468.474 312.297 468.148 312.31C467.496 312.332 466.846 312.238 466.223 312.032L461.593 310.797C461.39 310.758 461.197 310.674 461.027 310.551C460.885 310.404 460.783 310.22 460.731 310.017C460.678 309.814 460.678 309.601 460.729 309.397C460.795 308.982 460.965 308.594 461.022 308.179C461.135 307.37 460.816 306.539 460.929 305.736C461.04 305.224 461.213 304.73 461.444 304.266C462.987 300.642 462.092 296.412 462.617 292.477C463.089 289.38 464.321 286.47 466.187 284.039C467.34 282.504 468.663 281.124 470.129 279.929C470.705 279.453 471.621 278.475 472.346 278.289C473.277 278.082 473.082 279.322 473.236 280.011Z" fill="#DBDBDB"/>
<path d="M438.193 232.933C437.854 234.081 438.384 235.344 438.142 236.513C437.88 237.803 436.737 238.699 436.413 239.995C435.899 241.967 437.473 243.766 438.626 245.405C442.896 251.493 442.335 259.921 440.874 267.348C439.698 273.307 438.072 279.155 436.012 284.837C435.369 286.602 434.659 288.395 433.393 289.717C435.76 288.996 438.276 288.269 440.648 288.968C443.652 289.854 446.245 292.953 449.291 292.248C451.123 291.816 452.409 290.089 454.056 289.132C457.143 287.367 460.862 288.477 464.305 289.045C465.046 289.231 465.822 289.189 466.543 288.925C467.093 288.61 467.56 288.154 467.901 287.597C469.437 285.503 470.357 282.975 470.545 280.328C470.627 279.01 470.444 277.689 470.008 276.452C469.573 275.215 468.895 274.09 468.019 273.152C467.289 272.42 466.414 271.83 465.853 270.966C465.308 269.958 465.015 268.817 465.004 267.654C464.598 261.642 465.977 255.505 464.557 249.69C464.042 247.619 463.203 245.635 462.977 243.514C462.694 240.874 463.368 238.049 462.38 235.633C461.603 233.715 459.89 232.354 458.043 231.655C456.196 230.955 454.22 230.758 452.26 230.562C449.44 230.31 439.372 229.026 438.193 232.933Z" fill="#33313F"/>
<g opacity="0.1">
<path opacity="0.1" d="M440.874 267.348C439.704 273.282 438.087 279.107 436.038 284.766C436.393 284.017 436.691 283.23 436.974 282.448C439.037 276.768 440.663 270.919 441.836 264.96C443.302 257.527 443.863 249.111 439.593 243.017C438.564 241.563 437.242 239.989 437.288 238.284C436.908 238.8 436.612 239.38 436.413 240C435.899 241.973 437.473 243.771 438.626 245.411C442.896 251.493 442.335 259.921 440.874 267.348Z" fill="black"/>
<path opacity="0.1" d="M438.204 235.961C438.616 235.417 438.924 234.791 439.109 234.119C439.189 233.308 439.168 232.488 439.047 231.682C438.651 231.999 438.353 232.435 438.193 232.933C437.89 233.901 438.24 234.95 438.204 235.961Z" fill="black"/>
<path opacity="0.1" d="M468.868 285.192C468.527 285.747 468.06 286.202 467.51 286.515C466.791 286.784 466.013 286.826 465.272 286.635C461.83 286.088 458.069 284.962 455.023 286.728C453.371 287.679 452.09 289.406 450.253 289.843C447.213 290.564 444.62 287.465 441.615 286.564C439.485 285.935 437.242 286.454 435.096 287.11C434.67 288.076 434.094 288.959 433.393 289.723C435.76 289.001 438.276 288.274 440.648 288.974C443.652 289.859 446.245 292.958 449.291 292.253C451.123 291.821 452.409 290.094 454.056 289.138C457.143 287.373 460.862 288.482 464.305 289.05C465.046 289.236 465.822 289.195 466.543 288.93C467.093 288.616 467.56 288.159 467.901 287.602C468.833 286.296 469.553 284.833 470.031 283.274C469.687 283.942 469.299 284.583 468.868 285.192Z" fill="black"/>
</g>
</g>
<defs>
<linearGradient id="paint0_linear" x1="395.448" y1="334.701" x2="474.168" y2="334.701" gradientUnits="userSpaceOnUse">
<stop stop-color="#808080" stop-opacity="0.25"/>
<stop offset="0.54" stop-color="#808080" stop-opacity="0.12"/>
<stop offset="1" stop-color="#808080" stop-opacity="0.1"/>
</linearGradient>
<clipPath id="clip0">
<rect width="600" height="440" fill="white"/>
</clipPath>
</defs>
</svg>
