<svg width="906" height="414" viewBox="0 0 906 414" fill="none" xmlns="http://www.w3.org/2000/svg">
<g clip-path="url(#clip0)">
<path d="M327.155 135.973H0V252.262H12.3926V282.677L40.4813 252.262H327.155V135.973Z" fill="#F0F0F0"/>
<path d="M318.068 147.297H9.08765V240.329H318.068V147.297Z" fill="white"/>
<path d="M185.179 175.353H36.4128V180.241H185.179V175.353Z" fill="#F0F0F0"/>
<path d="M295.699 192.263H36.4128V197.152H295.699V192.263Z" fill="#F0F0F0"/>
<path d="M295.445 209.174H36.4128V214.062H295.445V209.174Z" fill="#F0F0F0"/>
<path d="M549.558 398.646C549.558 398.646 551.117 363.264 583.086 367.377L549.558 398.646Z" fill="#F0F0F0"/>
<path d="M540.525 364.976C549.361 364.976 556.525 357.219 556.525 347.651C556.525 338.083 549.361 330.326 540.525 330.326C531.688 330.326 524.524 338.083 524.524 347.651C524.524 357.219 531.688 364.976 540.525 364.976Z" fill="#F0F0F0"/>
<path d="M542.438 376.825H537.921V411.057H542.438V376.825Z" fill="#F0F0F0"/>
<path d="M699.417 344.482C770.828 344.482 828.719 281.799 828.719 204.476C828.719 127.154 770.828 64.471 699.417 64.471C628.005 64.471 570.114 127.154 570.114 204.476C570.114 281.799 628.005 344.482 699.417 344.482Z" fill="#3F3D56"/>
<path d="M618.013 215.715C621.224 211.552 625.24 208.204 629.778 205.906C634.315 203.608 639.264 202.417 644.273 202.417C649.282 202.417 654.23 203.608 658.768 205.906C663.306 208.204 667.322 211.552 670.533 215.715C675.974 210.091 679.752 202.847 681.39 194.898C683.028 186.95 682.453 178.653 679.737 171.059C677.02 163.464 672.285 156.912 666.129 152.232C659.974 147.551 652.675 144.952 645.155 144.763C637.636 144.574 630.233 146.804 623.884 151.17C617.535 155.537 612.524 161.844 609.485 169.294C606.446 176.744 605.516 185.002 606.811 193.024C608.107 201.047 611.571 208.473 616.765 214.364C617.171 214.825 617.587 215.275 618.013 215.715Z" fill="white"/>
<path d="M720.694 215.715C723.906 211.552 727.922 208.204 732.459 205.906C736.997 203.609 741.945 202.418 746.954 202.418C751.964 202.418 756.912 203.609 761.449 205.906C765.987 208.204 770.003 211.552 773.215 215.715C778.655 210.092 782.433 202.847 784.072 194.898C785.71 186.95 785.134 178.653 782.418 171.059C779.701 163.464 774.966 156.912 768.811 152.232C762.655 147.551 755.356 144.952 747.837 144.763C740.317 144.574 732.915 146.804 726.565 151.17C720.216 155.537 715.205 161.844 712.166 169.294C709.127 176.744 708.197 185.002 709.493 193.024C710.789 201.047 714.253 208.473 719.446 214.364C719.853 214.825 720.269 215.275 720.694 215.715Z" fill="white"/>
<path d="M631.3 186.073C638.525 186.073 644.382 179.731 644.382 171.908C644.382 164.085 638.525 157.744 631.3 157.744C624.075 157.744 618.218 164.085 618.218 171.908C618.218 179.731 624.075 186.073 631.3 186.073Z" fill="#3F3D56"/>
<path d="M733.977 186.073C741.202 186.073 747.059 179.731 747.059 171.908C747.059 164.085 741.202 157.744 733.977 157.744C726.752 157.744 720.895 164.085 720.895 171.908C720.895 179.731 726.752 186.073 733.977 186.073Z" fill="#3F3D56"/>
<path d="M606.243 255.949C614.644 255.949 621.455 248.575 621.455 239.478C621.455 230.381 614.644 223.007 606.243 223.007C597.841 223.007 591.031 230.381 591.031 239.478C591.031 248.575 597.841 255.949 606.243 255.949Z" fill="black"/>
<path d="M781.181 255.949C789.583 255.949 796.393 248.575 796.393 239.478C796.393 230.381 789.583 223.007 781.181 223.007C772.78 223.007 765.969 230.381 765.969 239.478C765.969 248.575 772.78 255.949 781.181 255.949Z" fill="black"/>
<path d="M693.712 206.535L682.303 260.066L701.318 239.478L693.712 206.535Z" fill="black"/>
<path d="M752.335 412.426L739.381 400.655L739.683 412.426H735.661L735.339 399.979L717.85 412.426H710.529L735.209 394.861L734.252 357.981L733.538 330.127L737.551 330.008L738.276 357.981L739.23 394.829L758.59 412.426H752.335Z" fill="#3F3D56"/>
<path d="M691.482 412.426L678.529 400.655L678.831 412.426H674.819L674.497 399.979L657.007 412.426H649.686L674.356 394.861L673.401 357.981L672.687 330.127L676.708 330.008L677.433 357.981L678.378 394.829L697.737 412.426H691.482Z" fill="#3F3D56"/>
<path d="M701.318 54.1765C697.77 54.1765 694.64 57.1606 692.548 61.7441C690.703 54.8518 686.828 50.0587 682.303 50.0587C681.996 50.0918 681.69 50.1473 681.39 50.2248C679.65 42.8661 675.607 37.7053 670.894 37.7053C664.593 37.7053 659.485 46.9234 659.485 58.2943C659.485 69.6653 664.593 78.8834 670.894 78.8834C671.202 78.8503 671.507 78.7948 671.807 78.7173C673.547 86.076 677.59 91.2368 682.303 91.2368C685.851 91.2368 688.981 88.2527 691.073 83.6692C692.918 90.5615 696.793 95.3546 701.318 95.3546C707.619 95.3546 712.727 86.1364 712.727 74.7655C712.727 63.3946 707.619 54.1765 701.318 54.1765Z" fill="#3F3D56"/>
<path d="M577.506 208.833L506.278 196.323C502.688 195.693 499.033 195.061 495.432 195.61C491.832 196.159 488.227 198.078 486.391 201.477C485.509 203.11 485.081 204.985 485.16 206.875C485.238 208.766 485.819 210.591 486.832 212.133C487.846 213.674 489.249 214.866 490.873 215.565C492.497 216.264 494.273 216.44 495.987 216.072C492.099 215.935 488.012 215.845 484.562 217.791C481.112 219.736 478.669 224.462 480.351 228.26C480.856 229.309 481.539 230.244 482.364 231.018C484.96 233.538 488.163 235.211 491.6 235.842C495.038 236.473 498.57 236.038 501.789 234.585C499.167 238.657 493.963 239.262 489.462 240.205C484.961 241.147 479.758 243.904 479.591 248.865C479.403 254.439 485.529 257.401 490.573 258.536C517.503 264.536 545.457 262.069 571.135 251.426C574.021 250.351 576.752 248.841 579.249 246.94C582.048 244.639 584.174 241.514 585.375 237.938C586.575 234.363 586.799 230.488 586.018 226.778C585.238 223.069 583.486 219.681 580.974 217.022C578.462 214.362 575.295 212.542 571.852 211.781" fill="#3F3D56"/>
<path d="M884.954 272.049C873.198 245.137 854.577 222.428 831.289 206.602C828.761 204.751 826.004 203.294 823.101 202.276C819.721 201.237 816.136 201.275 812.775 202.385C809.414 203.495 806.42 205.63 804.15 208.535C801.881 211.44 800.433 214.991 799.98 218.764C799.526 222.536 800.086 226.371 801.593 229.808L796.019 226.686C807.21 249.74 818.401 272.793 829.592 295.847C831.284 299.332 833.014 302.875 835.584 305.661C838.153 308.448 841.736 310.414 845.348 309.959C846.782 309.785 848.156 309.241 849.355 308.373C850.555 307.504 851.544 306.337 852.241 304.968C852.937 303.6 853.321 302.071 853.358 300.509C853.396 298.947 853.087 297.398 852.457 295.993C854.028 298.39 856.093 300.357 858.489 301.738C861.999 303.555 866.956 302.829 868.748 299.09C869.219 298.024 869.499 296.87 869.575 295.691C869.874 291.93 869.184 288.153 867.584 284.799C865.984 281.444 863.54 278.649 860.534 276.736C865.115 276.559 868.689 280.698 872.089 284.027C875.491 287.356 880.652 290.202 884.415 287.366C888.642 284.178 887.147 277.096 884.954 272.049Z" fill="#3F3D56"/>
<path d="M58.473 0H530.648V167.837H512.762V211.732L472.223 167.837H58.473V0Z" fill="#CACACA"/>
<path d="M517.532 16.3439H71.5891V150.614H517.532V16.3439Z" fill="white"/>
<path d="M322.16 55.5449H107.45V62.6001H322.16V55.5449Z" fill="black"/>
<path d="M481.671 79.9513H107.45V87.0065H481.671V79.9513Z" fill="black"/>
<path d="M481.305 104.358H107.45V111.413H481.305V104.358Z" fill="black"/>
<path d="M904.951 413.562H505.392C505.114 413.562 504.847 413.442 504.651 413.229C504.454 413.016 504.344 412.727 504.344 412.426C504.344 412.125 504.454 411.836 504.651 411.623C504.847 411.41 505.114 411.291 505.392 411.291H904.951C905.229 411.291 905.496 411.41 905.693 411.623C905.89 411.836 906 412.125 906 412.426C906 412.727 905.89 413.016 905.693 413.229C905.496 413.442 905.229 413.562 904.951 413.562Z" fill="#CACACA"/>
</g>
<defs>
<clipPath id="clip0">
<rect width="906" height="413.562" fill="white"/>
</clipPath>
</defs>
</svg>
