<svg width="600" height="440" viewBox="0 0 600 440" fill="none" xmlns="http://www.w3.org/2000/svg">
<g clip-path="url(#clip0)">
<path d="M459.374 435.024C451.692 427.063 447.027 414.485 448.25 402.242C449.474 389.998 457.053 378.742 466.883 376.142C476.714 373.541 487.921 380.739 490.907 392.518C492.55 369.808 494.444 346.146 504.287 326.807C513.201 309.295 528.638 296.765 545.369 294.523C562.1 292.281 579.716 300.748 590.15 316.946C600.585 333.144 603.14 356.692 595.832 375.289C590.448 388.988 580.53 399.183 570.138 407.478C536.557 434.054 496.281 444.862 456.721 437.912L459.374 435.024Z" fill="#F2F2F2"/>
<path d="M573.605 301.217C559.8 315.01 547.135 330.435 535.794 347.272C518.045 373.53 503.683 402.97 493.207 434.566C492.44 436.871 495.491 437.875 496.25 435.595C513.39 384.244 540.753 338.984 575.837 303.954C577.412 302.381 575.168 299.657 573.605 301.217Z" fill="white"/>
<path d="M193.15 432.861C203.7 421.926 210.109 404.651 208.428 387.834C206.748 371.017 196.338 355.557 182.836 351.986C169.333 348.414 153.941 358.3 149.84 374.479C147.582 343.287 144.982 310.787 131.461 284.224C119.219 260.172 98.0154 242.961 75.0353 239.883C52.0552 236.804 27.8602 248.432 13.5283 270.68C-0.803515 292.928 -4.3126 325.272 5.72504 350.814C13.1194 369.63 26.7425 383.634 41.016 395.026C86.5537 431.372 143.043 446.53 196.793 436.827" fill="#F2F2F2"/>
<path d="M36.2529 249.077C55.2143 268.021 72.6093 289.208 88.1865 312.333C103.766 335.433 117.482 360.333 129.142 386.682C135.66 401.462 141.515 416.668 146.681 432.232C147.734 435.398 143.543 436.776 142.501 433.645C133.351 406.207 122.03 379.934 108.702 355.205C95.438 330.565 80.2569 307.561 63.3717 286.517C53.8213 274.62 43.7449 263.376 33.188 252.836C31.0242 250.675 34.1069 246.933 36.2528 249.077L36.2529 249.077Z" fill="white"/>
<path d="M430.689 439.037H178.965V122.237C178.965 54.835 223.67 -7.62939e-06 278.62 -7.62939e-06H331.034C385.984 -7.62939e-06 430.689 54.835 430.689 122.237V439.037Z" fill="#F2F2F2"/>
<path d="M378.276 439.037H178.966V122.237C178.911 96.4105 185.578 71.2365 197.997 50.3804C198.455 49.6151 198.912 48.8596 199.383 48.1124C205.39 38.4485 212.538 29.9377 220.592 22.8609C221.047 22.4549 221.504 22.0559 221.968 21.6569C228.707 15.9362 235.997 11.2597 243.673 7.73374C244.128 7.52184 244.592 7.30953 245.056 7.10589C251.998 4.06737 259.194 1.98601 266.51 0.90022C266.964 0.824214 267.43 0.764737 267.895 0.70526C275.026 -0.229889 282.217 -0.229889 289.348 0.70526C289.812 0.764737 290.278 0.824206 290.737 0.901033C298.052 1.98689 305.245 4.06801 312.185 7.10593C312.649 7.30957 313.113 7.52186 313.57 7.73418C321.151 11.2156 328.355 15.8224 335.023 21.4516C335.486 21.8419 335.95 22.2409 336.407 22.6399C340.921 26.5928 345.162 30.9964 349.085 35.806C352.231 39.6638 355.163 43.776 357.861 48.1149C358.33 48.8596 358.787 49.6151 359.244 50.3792C371.663 71.2355 378.331 96.41 378.276 122.237V439.037Z" fill="#CCCCCC"/>
<path d="M362.069 297.344C368.163 297.344 373.103 291.284 373.103 283.809C373.103 276.334 368.163 270.274 362.069 270.274C355.974 270.274 351.034 276.334 351.034 283.809C351.034 291.284 355.974 297.344 362.069 297.344Z" fill="#878787"/>
<path d="M410.068 429.548H401.613L397.59 389.546L410.07 389.547L410.068 429.548Z" fill="#DBDBDB"/>
<path d="M395.573 426.585H411.88V439.178H385.307C385.307 437.524 385.572 435.887 386.088 434.359C386.604 432.831 387.36 431.443 388.314 430.273C389.267 429.104 390.399 428.176 391.645 427.543C392.89 426.91 394.225 426.585 395.573 426.585Z" fill="black"/>
<path d="M452.137 429.548H443.682L439.659 389.546L452.138 389.547L452.137 429.548Z" fill="#DBDBDB"/>
<path d="M437.643 426.585H453.949V439.178H427.376C427.376 437.524 427.642 435.887 428.158 434.359C428.673 432.831 429.43 431.443 430.383 430.273C431.336 429.104 432.468 428.176 433.714 427.543C434.959 426.91 436.295 426.585 437.643 426.585Z" fill="black"/>
<path d="M367.654 286.49C367.045 285.391 366.641 284.142 366.469 282.83C366.297 281.518 366.362 280.176 366.658 278.898C366.955 277.621 367.476 276.438 368.186 275.434C368.895 274.43 369.775 273.63 370.764 273.088L399.506 175.919L413.649 185.386L380.832 278.244C381.463 280.343 381.445 282.652 380.781 284.736C380.117 286.819 378.853 288.531 377.229 289.547C375.604 290.564 373.732 290.814 371.968 290.25C370.203 289.687 368.668 288.349 367.654 286.49Z" fill="#DBDBDB"/>
<path d="M447.818 304.749C446.878 304.088 446.068 303.182 445.445 302.096C444.821 301.01 444.4 299.769 444.21 298.461C444.019 297.153 444.065 295.81 444.344 294.526C444.623 293.242 445.128 292.049 445.823 291.031L436.919 188.242L453.014 189.144L456.714 290.25C458.032 291.796 458.841 293.882 458.989 296.111C459.137 298.341 458.613 300.559 457.516 302.346C456.42 304.133 454.827 305.365 453.039 305.808C451.252 306.251 449.394 305.874 447.818 304.749Z" fill="#DBDBDB"/>
<path d="M422.142 157.921C431.497 157.921 439.08 148.619 439.08 137.144C439.08 125.669 431.497 116.367 422.142 116.367C412.787 116.367 405.203 125.669 405.203 137.144C405.203 148.619 412.787 157.921 422.142 157.921Z" fill="#DBDBDB"/>
<path d="M447.71 281.372H396.643L396.705 280.884C396.796 280.156 405.806 207.763 399.161 184.08C398.494 181.752 398.553 179.204 399.326 176.927C400.098 174.649 401.531 172.803 403.347 171.743H403.347C412.845 166.257 431.076 159.501 446.464 175.896C448.728 178.348 450.497 181.413 451.629 184.848C452.761 188.283 453.226 191.994 452.988 195.687L447.71 281.372Z" fill="#878787"/>
<path d="M406.451 218.461L383.46 212.74L394.237 181.416C394.882 178.382 396.482 175.785 398.685 174.196C400.889 172.607 403.516 172.155 405.991 172.938C408.466 173.722 410.587 175.678 411.888 178.377C413.189 181.076 413.564 184.297 412.931 187.335L406.451 218.461Z" fill="#878787"/>
<path d="M435.897 229.084L434.515 190.221C433.466 182.916 436.876 176.009 442.12 174.88C447.365 173.756 452.486 178.823 453.539 186.182L458.734 222.496L435.897 229.084Z" fill="#878787"/>
<path d="M446.011 276.719C454.228 315.104 455.125 363.908 452.908 417.143L441.873 415.451L421.873 313.94L410.839 417.143L398.425 416.297C394.717 360.441 391.106 312.489 397.046 280.949L446.011 276.719Z" fill="black"/>
<path d="M433.303 153.201C430.143 157.33 424.275 155.113 423.863 149.473C423.831 149.035 423.833 148.594 423.87 148.157C424.082 145.658 425.259 143.39 424.977 140.752C424.914 140.095 424.714 139.47 424.398 138.934C421.88 134.798 415.969 140.784 413.592 137.04C412.135 134.744 413.848 131.129 412.73 128.563C411.254 125.176 406.882 126.847 404.141 124.992C401.091 122.929 401.273 117.189 403.281 113.697C405.73 109.439 410.023 107.167 414.263 106.839C418.502 106.512 422.713 107.918 426.671 109.81C431.168 111.96 435.628 114.931 438.396 119.781C441.761 125.68 442.085 133.61 440.402 140.508C439.378 144.704 435.884 149.829 433.303 153.201Z" fill="black"/>
<path d="M579.298 439.581H70.1293C69.9119 439.58 69.7037 439.474 69.5502 439.285C69.3967 439.096 69.3105 438.841 69.3105 438.574C69.3105 438.307 69.3967 438.052 69.5502 437.863C69.7037 437.674 69.9119 437.567 70.1293 437.567H579.298C579.515 437.567 579.723 437.674 579.877 437.863C580.03 438.052 580.116 438.307 580.116 438.574C580.116 438.841 580.03 439.096 579.877 439.285C579.723 439.474 579.515 439.58 579.298 439.581Z" fill="#3F3D56"/>
<path d="M323.448 347.254H233.793C232.613 347.261 231.478 346.694 230.637 345.677C229.797 344.66 229.32 343.275 229.311 341.827V96.3642C229.32 94.9159 229.797 93.5312 230.637 92.5138C231.478 91.4964 232.613 90.9295 233.793 90.9373H323.448C324.629 90.9295 325.764 91.4964 326.605 92.5138C327.445 93.5312 327.922 94.9159 327.931 96.3642V341.827C327.922 343.275 327.445 344.66 326.605 345.677C325.764 346.694 324.629 347.261 323.448 347.254Z" fill="white"/>
<path d="M327.931 170.361H229.311V172.053H327.931V170.361Z" fill="#CCCCCC"/>
<path d="M328.276 266.89H229.655V268.582H328.276V266.89Z" fill="#CCCCCC"/>
<path d="M261.724 90.9373H260.345V348.1H261.724V90.9373Z" fill="#CCCCCC"/>
<path d="M296.207 90.9373H294.828V348.1H296.207V90.9373Z" fill="#CCCCCC"/>
</g>
<defs>
<clipPath id="clip0">
<rect width="600" height="440" fill="white"/>
</clipPath>
</defs>
</svg>
