<svg width="280" height="220" viewBox="0 0 280 220" fill="none" xmlns="http://www.w3.org/2000/svg">
<g clip-path="url(#clip0)">
<rect width="280" height="220" fill="white"/>
<path d="M205.93 0.125984H0.0883789V142.181H205.93V0.125984Z" fill="#E6E6E6"/>
<path d="M200.043 17.9429H5.97363V133.776H200.043V17.9429Z" fill="white"/>
<path d="M205.841 0H0V9.42315H205.841V0Z" fill="black"/>
<path d="M6.49824 6.56411C7.39338 6.56411 8.11904 5.78217 8.11904 4.8176C8.11904 3.85304 7.39338 3.0711 6.49824 3.0711C5.6031 3.0711 4.87744 3.85304 4.87744 4.8176C4.87744 5.78217 5.6031 6.56411 6.49824 6.56411Z" fill="white"/>
<path d="M12.6506 6.56411C13.5457 6.56411 14.2714 5.78217 14.2714 4.8176C14.2714 3.85304 13.5457 3.0711 12.6506 3.0711C11.7554 3.0711 11.0298 3.85304 11.0298 4.8176C11.0298 5.78217 11.7554 6.56411 12.6506 6.56411Z" fill="white"/>
<path d="M18.8024 6.56411C19.6976 6.56411 20.4232 5.78217 20.4232 4.8176C20.4232 3.85304 19.6976 3.0711 18.8024 3.0711C17.9073 3.0711 17.1816 3.85304 17.1816 4.8176C17.1816 5.78217 17.9073 6.56411 18.8024 6.56411Z" fill="white"/>
<path d="M67.8092 27.4702H29.8521V71.8441H67.8092V27.4702Z" fill="#E6E6E6"/>
<path d="M121.987 27.4702H84.0298V71.8441H121.987V27.4702Z" fill="#E6E6E6"/>
<path d="M176.164 27.4702H138.207V71.8441H176.164V27.4702Z" fill="#E6E6E6"/>
<path d="M67.8092 79.8761H29.8521V124.25H67.8092V79.8761Z" fill="#E6E6E6"/>
<path d="M121.987 79.8761H84.0298V124.25H121.987V79.8761Z" fill="#E6E6E6"/>
<path d="M176.164 79.8761H138.207V124.25H176.164V79.8761Z" fill="#E6E6E6"/>
<path d="M93.2038 91.2805L100.139 88.326L100.945 103.098C100.945 103.098 102.397 107.617 101.913 109.355C101.913 109.355 102.236 112.309 101.429 112.483C100.623 112.657 98.3648 113.005 98.2036 112.831C98.0423 112.657 98.0423 112.136 98.0423 112.136C98.0423 112.136 96.4294 113.352 96.2682 114.742C96.2682 114.742 89.4943 117.002 89.333 114.916C89.1717 112.831 92.7199 111.093 92.7199 111.093L95.4617 106.574L93.2038 91.2805Z" fill="white"/>
<path d="M107.881 91.2805L114.816 88.326L115.622 103.098C115.622 103.098 117.074 107.617 116.59 109.355C116.59 109.355 116.912 112.309 116.106 112.483C115.3 112.657 113.042 113.005 112.88 112.831C112.719 112.657 112.719 112.136 112.719 112.136C112.719 112.136 111.106 113.352 110.945 114.742C110.945 114.742 104.171 117.002 104.01 114.916C103.848 112.831 107.397 111.093 107.397 111.093L110.138 106.574L107.881 91.2805Z" fill="white"/>
<path d="M108.559 34.2346C108.559 34.2346 107.082 38.6808 108.793 40.6859L107.367 45.9676C107.367 45.9676 112.435 62.3511 110.987 64.6396C110.987 64.6396 105.581 67.5522 94.769 63.5993L99.1614 45.2395L98.5339 37.4899L99.4027 33.8491L101.333 33.6411C101.333 33.6411 100.175 38.3221 102.299 39.0502C104.423 39.7784 106.494 33.7579 106.494 33.7579L108.559 34.2346Z" fill="#3F3D56"/>
<path d="M40.3623 62.9377L42.2258 63.7592L51.1199 51.1632L53.9152 65.9498L55.7787 65.5847C56.9741 52.8367 57.9489 39.8339 56.7528 33.684L49.8493 33.3645L46.7152 44.135L45.1905 51.4371L40.3623 62.9377Z" fill="white"/>
<path d="M153.466 33.5818C153.466 33.5818 150.923 37.3918 151.047 38.9291C151.171 40.4665 152.784 65.532 152.784 65.532L156.568 65.7325L155.451 47.6854L156.381 42.806L158.677 65.532L163.329 65.6657L159.173 36.1887L158.366 33.5818L153.466 33.5818Z" fill="white"/>
<path d="M167.84 94.9591C167.165 94.0859 166.004 93.6138 164.89 93.3587C164.923 93.2495 161.5 92.4875 161.442 92.6446L160.152 91.5371L156.188 93.7551L153.961 92.1211L152.926 92.5168C152.968 92.3202 149.714 92.9274 149.714 92.9274C149.092 92.9515 148.298 92.9934 147.409 93.0671C144.297 93.3251 144.057 102.011 144.057 102.011C145.489 101.38 147.016 101.035 148.563 100.995L149.404 111.385C153.731 110.985 158.269 111.451 162.972 112.589L165.178 104.422L170.315 102.269C170.315 102.269 169.437 97.0231 167.84 94.9591Z" fill="#3F3D56"/>
<path d="M57.6097 90.0122C57.0533 89.2927 56.0969 88.9037 55.1783 88.6935C55.2059 88.6035 52.385 87.9757 52.3378 88.1051L51.2747 87.1926L48.0087 89.0201L46.1732 87.6738L45.3207 87.9998C45.3554 87.8378 42.6739 88.3382 42.6739 88.3382C42.1617 88.358 41.5074 88.3925 40.7751 88.4532C38.2105 88.6658 38.0132 95.8227 38.0132 95.8227C39.1932 95.3026 40.4514 95.0187 41.7259 94.9851L42.4191 115.942C45.9844 115.612 49.7236 115.995 53.5983 116.934L55.4157 97.8089L59.6483 96.0353C59.6483 96.0353 58.9249 91.7128 57.6097 90.0122Z" fill="white"/>
<path d="M195.712 210.761L170.036 216.424L169.451 216.359L146.887 213.905V183.093L174.509 178.061L194.546 180.579L194.553 180.715V180.78L195.712 210.761Z" fill="#E6E6E6"/>
<path opacity="0.1" d="M195.713 210.761L170.036 216.424L169.451 216.359V184.772L194.553 180.715L195.713 210.761Z" fill="black"/>
<path opacity="0.05" d="M194.553 180.78L194.546 180.787L169.451 184.772L146.887 183.093L174.509 178.061L194.546 180.579L194.553 180.715V180.78Z" fill="black"/>
<path d="M165.605 194.944L149.994 193.846L149.515 201.742L165.126 202.84L165.605 194.944Z" fill="white"/>
<path d="M161.785 197.261L153.501 196.679L153.335 199.425L161.619 200.008L161.785 197.261Z" fill="black"/>
<path d="M230.513 210.761L204.837 216.424L204.252 216.359L181.688 213.905V183.093L209.309 178.061L229.347 180.579L229.354 180.715V180.78L230.513 210.761Z" fill="black"/>
<path opacity="0.1" d="M230.513 210.761L204.837 216.424L204.251 216.359V184.772L229.354 180.715L230.513 210.761Z" fill="black"/>
<path opacity="0.05" d="M229.354 180.78L229.347 180.787L204.252 184.772L181.688 183.093L209.309 178.061L229.347 180.579L229.354 180.715V180.78Z" fill="black"/>
<path d="M200.405 194.944L184.794 193.846L184.316 201.742L199.927 202.84L200.405 194.944Z" fill="white"/>
<path d="M196.585 197.261L188.302 196.679L188.135 199.425L196.419 200.008L196.585 197.261Z" fill="black"/>
<path d="M249.093 56.979C249.093 56.979 253.623 69.59 245.318 69.59C237.012 69.59 258.154 82.201 266.459 74.8785C274.765 67.556 269.857 67.1492 269.857 67.1492C269.857 67.1492 258.909 68.3696 259.286 57.7927L249.093 56.979Z" fill="#FFB8B8"/>
<path d="M254.994 60.775C262.368 60.775 268.346 54.3336 268.346 46.3877C268.346 38.4418 262.368 32.0004 254.994 32.0004C247.62 32.0004 241.643 38.4418 241.643 46.3877C241.643 54.3336 247.62 60.775 254.994 60.775Z" fill="#2F2E41"/>
<path d="M246.828 109.457L232.482 149.324C232.482 149.324 225.309 161.528 227.951 173.732C230.594 185.937 237.856 208.148 237.856 208.148C237.856 208.148 243.342 209.652 242.964 204.364C242.587 199.075 243.2 173.436 237.537 166.52L260.419 138.34L261.174 170.478C261.174 170.478 259.663 185.123 260.041 191.632C260.419 198.141 261.174 209.125 261.174 209.125L265.704 208.311C265.704 208.311 271.815 178.348 271.06 168.584C271.06 168.584 285.087 121.145 270.741 109.755L246.828 109.457Z" fill="#2F2E41"/>
<path d="M239.434 208.082C239.434 208.082 237.586 207.575 237.374 209.401C237.161 211.226 233.276 219.344 237.332 219.751C241.388 220.157 242.791 216.068 243.471 213.193C244.15 210.318 244.408 210.153 244.975 209.602C245.542 209.051 246.892 206.034 245.198 205.804C243.504 205.575 242.636 203.78 242.636 203.78C242.636 203.78 242.102 208.814 239.434 208.082Z" fill="#2F2E41"/>
<path d="M264.131 206.67C264.131 206.67 260.705 206.143 260.95 207.461C261.195 208.78 260.461 214.317 260.95 214.844C261.44 215.371 262.418 216.426 262.418 217.217C262.418 218.008 262.663 220.645 266.823 219.854C270.982 219.063 270.004 215.108 269.759 214.58C269.514 214.053 266.578 211.416 266.823 209.834C267.067 208.252 265.599 205.616 264.131 206.67Z" fill="#2F2E41"/>
<path d="M255.16 62.3532C260.267 62.3532 264.408 57.8916 264.408 52.3879C264.408 46.8843 260.267 42.4227 255.16 42.4227C250.052 42.4227 245.912 46.8843 245.912 52.3879C245.912 57.8916 250.052 62.3532 255.16 62.3532Z" fill="#FFB8B8"/>
<path d="M264.005 66.1322C264.005 66.1322 267.231 73.009 257.508 73.204C254.519 73.2639 250.965 70.9168 249.497 68.1102C248.633 66.4568 248.415 68.7404 247.017 68.573C244.369 68.2561 241.541 69.4394 239.011 70.8895C238.684 71.0764 238.427 71.3799 238.285 71.748C238.143 72.116 238.124 72.5259 238.231 72.9076C240.15 79.7689 245.631 112.774 246.477 114.571C248.637 119.16 272.018 111.475 272.018 111.475C272.339 98.9888 268.133 81.5197 275.53 68.815C273.903 67.4974 272.03 66.5753 270.041 66.1122C268.051 65.649 265.992 65.6559 264.005 66.1322Z" fill="#575A89"/>
<path d="M263.807 44.7249L257.031 40.9007L247.675 42.465L245.739 51.6785L250.558 51.4786L251.904 48.0937V51.4229L254.128 51.3307L255.418 45.9418L256.225 51.6785L264.129 51.5044L263.807 44.7249Z" fill="#2F2E41"/>
<path d="M255.697 35.7865C258.673 35.7865 261.085 33.1873 261.085 29.9811C261.085 26.7749 258.673 24.1757 255.697 24.1757C252.722 24.1757 250.31 26.7749 250.31 29.9811C250.31 33.1873 252.722 35.7865 255.697 35.7865Z" fill="#2F2E41"/>
<path d="M248.904 28.2142C248.904 26.8276 249.365 25.4868 250.203 24.4342C251.041 23.3817 252.2 22.6869 253.472 22.4757C252.705 22.3491 251.921 22.4028 251.174 22.633C250.428 22.8633 249.737 23.2647 249.147 23.8097C248.558 24.3547 248.086 25.0304 247.761 25.7907C247.437 26.5509 247.27 27.3776 247.27 28.2142C247.27 29.0509 247.437 29.8776 247.761 30.6378C248.086 31.3981 248.558 32.0738 249.147 32.6188C249.737 33.1638 250.428 33.5652 251.174 33.7955C251.921 34.0257 252.705 34.0794 253.472 33.9528C252.2 33.7416 251.041 33.0468 250.203 31.9943C249.365 30.9417 248.904 29.6009 248.904 28.2142Z" fill="#2F2E41"/>
<path d="M280 166.38L254.324 172.044L253.738 171.979L231.174 169.525V138.713L258.796 133.68L278.833 136.198L278.841 136.335V136.399L280 166.38Z" fill="#E6E6E6"/>
<path opacity="0.1" d="M280 166.38L254.324 172.044L253.739 171.979V140.391L278.841 136.335L280 166.38Z" fill="black"/>
<path opacity="0.05" d="M278.841 136.399L278.833 136.407L253.738 140.391L231.174 138.713L258.796 133.68L278.833 136.198L278.841 136.335V136.399Z" fill="black"/>
<path d="M249.892 150.564L234.281 149.466L233.803 157.362L249.414 158.46L249.892 150.564Z" fill="white"/>
<path d="M246.072 152.881L237.789 152.299L237.622 155.045L245.906 155.628L246.072 152.881Z" fill="black"/>
<path d="M240.002 130.799C240.002 130.799 230.564 138.935 234.717 141.783C238.87 144.631 243.777 130.799 243.777 130.799H240.002Z" fill="#FFB8B8"/>
<path d="M240.411 70.5352C239.922 69.9414 233.748 73.3341 234.664 77.7598L235.094 108.425C235.094 108.425 232.829 133.647 238.492 133.647C244.155 133.647 243.487 134.495 244.242 132.461C244.997 130.427 245.2 113.195 245.2 113.195L240.411 70.5352Z" fill="#575A89"/>
<path d="M269.609 128.047C269.609 128.047 274.517 141.878 278.67 139.031C282.822 136.183 273.384 128.047 273.384 128.047H269.609Z" fill="#FFB8B8"/>
<path d="M270.741 110.787C270.741 110.787 268.39 127.675 269.145 129.709C269.9 131.743 269.232 130.895 274.894 130.895C280.557 130.895 278.292 105.673 278.292 105.673L278.723 75.0076C279.638 70.5818 273.465 67.1892 272.976 67.7829L267.548 87.7368L270.741 110.787Z" fill="#575A89"/>
</g>
<defs>
<clipPath id="clip0">
<rect width="280" height="220" fill="white"/>
</clipPath>
</defs>
</svg>
